<svg width="130" height="30" viewBox="0 0 130 30" fill="none" xmlns="http://www.w3.org/2000/svg">
<path fill-rule="evenodd" clip-rule="evenodd" d="M78.4316 23.2106C79.2172 22.9597 80.665 22.2297 80.665 22.2297C80.665 22.2297 80.6624 22.6643 80.6892 22.8833C80.7132 23.0763 80.7964 23.1598 80.9842 23.1835C81.0685 23.1921 81.1533 23.1955 81.238 23.1937H82.6336L82.6547 23.1937C82.718 23.1938 82.7818 23.1938 82.8448 23.1877C83.063 23.1666 83.153 23.085 83.1713 22.8751C83.1813 22.7614 83.1807 22.6478 83.1801 22.5341L83.1798 22.4518V4.42416C83.1798 4.39791 83.1799 4.37166 83.1801 4.34542C83.1806 4.25879 83.1811 4.17216 83.1761 4.08553C83.1606 3.81322 83.0828 3.71445 82.8256 3.70994C82.4045 3.70231 81.9834 3.70382 81.5623 3.70533C81.3912 3.70594 81.2201 3.70655 81.049 3.70655C81.0207 3.70689 80.9923 3.70972 80.9644 3.71502C80.7981 3.74465 80.7107 3.82394 80.6932 3.99072C80.68 4.14527 80.6749 4.3004 80.6777 4.45548C80.6777 6.50333 80.665 11.5771 80.665 11.5771C80.665 11.5771 78.9474 10.2385 76.474 10.2756C75.3466 10.2926 74.2995 10.5623 73.3261 11.1222C70.5344 12.7278 69.4526 15.7343 70.1542 18.5359C70.7921 21.0902 73.2483 23.4891 76.3863 23.4722C77.0803 23.4685 77.7652 23.4256 78.4316 23.2106ZM76.4985 20.9421C74.1041 20.8916 72.4677 19.0297 72.4942 16.8306C72.4931 14.5375 74.4403 12.7976 76.5699 12.8215C78.8613 12.8475 80.6497 14.7238 80.6074 17.0112C80.568 19.1395 78.7666 20.9901 76.4985 20.9421ZM122.701 10.2799C121.357 10.4016 119.225 11.5625 119.225 11.5625V10.7721C119.203 10.5822 119.116 10.4958 118.931 10.4693C118.861 10.4606 118.79 10.4569 118.72 10.458C118.226 10.4565 117.733 10.4565 117.24 10.458C117.155 10.4566 117.07 10.4623 116.986 10.4749C116.846 10.4995 116.755 10.5878 116.741 10.7289C116.727 10.8833 116.721 11.0384 116.723 11.1934V29.1364L116.723 29.2082C116.722 29.3112 116.722 29.4145 116.729 29.517C116.749 29.7809 116.832 29.8791 117.093 29.8839C117.686 29.8954 118.278 29.8954 118.87 29.8839C119.124 29.8788 119.211 29.775 119.23 29.5103C119.24 29.3844 119.239 29.2583 119.239 29.1322L119.238 29.0449C119.237 26.9853 119.237 24.9258 119.238 22.8664C119.237 22.6974 119.245 22.5283 119.262 22.3602C119.279 22.2165 119.382 22.1672 119.505 22.2335C119.564 22.2658 119.621 22.3025 119.679 22.3395C119.704 22.356 119.73 22.3726 119.756 22.389C121.238 23.3284 122.848 23.6698 124.571 23.3459C126.135 23.0518 127.451 22.2944 128.45 21.0404C129.505 19.7173 129.988 18.208 129.899 16.5124C129.799 14.6034 129.019 13.0228 127.571 11.7981C126.172 10.6152 124.534 10.1143 122.701 10.2799ZM127.38 16.8651C127.375 19.1373 125.487 20.9597 123.342 20.8832L122.879 20.8667C120.713 20.6617 119.265 18.745 119.274 16.8527C119.285 14.644 121.047 12.7934 123.329 12.7892C125.727 12.7847 127.385 14.7786 127.38 16.8651ZM122.89 20.8677C123.038 20.8813 123.188 20.8869 123.342 20.884L122.89 20.8677ZM100.362 11.2242C101.423 10.6674 102.497 10.2652 103.718 10.2783C105.005 10.2921 106.164 10.6773 107.179 11.4542C108.657 12.5852 109.449 14.0952 109.485 15.9613C109.507 17.119 109.502 18.2767 109.498 19.4343C109.496 19.9416 109.494 20.4488 109.495 20.9561V22.4799L109.495 22.5415C109.495 22.6338 109.496 22.7262 109.489 22.8185C109.47 23.0869 109.389 23.1679 109.129 23.1904C109.122 23.1904 109.115 23.1909 109.108 23.1914L109.101 23.1919L109.094 23.1923L109.087 23.1924C108.921 23.1924 108.756 23.193 108.59 23.1935L108.588 23.1935C108.19 23.1949 107.793 23.1962 107.395 23.1899C107.085 23.1848 107.004 23.0934 106.985 22.7782C106.978 22.6669 106.979 22.5557 106.979 22.4445L106.979 22.3549L106.98 20.9805C106.98 19.5056 106.981 18.0307 106.976 16.5559C106.976 16.2455 106.969 15.9314 106.912 15.6292C106.658 14.2795 105.901 13.3285 104.566 12.9529C102.54 12.3832 100.724 13.6685 100.382 15.5773C100.339 15.8183 100.339 16.069 100.339 16.3164L100.339 16.3787C100.335 18.4104 100.334 20.4422 100.336 22.474C100.34 22.6152 100.336 22.7564 100.325 22.8972C100.304 23.0897 100.218 23.1667 100.024 23.1887C99.968 23.194 99.9116 23.196 99.8551 23.195H98.2477C98.1912 23.1958 98.1347 23.193 98.0785 23.1865C97.8927 23.1617 97.8053 23.0764 97.7892 22.8831C97.7789 22.7584 97.7796 22.6325 97.7802 22.507L97.7805 22.4178V11.9627V4.47058C97.7805 4.44 97.7803 4.40941 97.7801 4.37883C97.7795 4.26832 97.7789 4.15781 97.7864 4.0473C97.8027 3.81224 97.889 3.73153 98.1324 3.70867C98.1817 3.70423 98.2311 3.70432 98.2804 3.70441L98.3016 3.70444H99.8243C99.8948 3.70296 99.9653 3.70635 100.035 3.7146C100.22 3.74084 100.307 3.82747 100.326 4.01992C100.326 6.37057 100.362 11.2242 100.362 11.2242ZM43.9649 10.7717C42.8795 11.8328 40.3951 13.8504 40.3951 13.8504C40.3489 11.7132 40.3609 9.57328 40.3729 7.43418V7.43416C40.3784 6.4629 40.3838 5.49181 40.3838 4.52123C40.3838 4.48985 40.384 4.45841 40.3841 4.42694V4.42693C40.3847 4.30332 40.3853 4.17921 40.3768 4.05618C40.3602 3.81688 40.2758 3.7373 40.0347 3.7136C39.9927 3.70937 39.9504 3.70937 39.9081 3.70937H38.3439C38.2873 3.7085 38.2308 3.7119 38.1747 3.71953C37.9883 3.74803 37.8989 3.83155 37.8817 4.02288C37.8669 4.18771 37.8671 4.35346 37.8673 4.51889L37.8673 4.5723V22.2986L37.8672 22.3812C37.867 22.4805 37.8667 22.5801 37.8696 22.6792C37.8707 22.7638 37.8774 22.8482 37.8899 22.9318C37.8972 22.9957 37.9259 23.0552 37.9714 23.1007C38.0169 23.1462 38.0764 23.1749 38.1403 23.1821C38.2381 23.1952 38.3367 23.2006 38.4353 23.1982H39.8303L39.8567 23.1982H39.8567C39.9183 23.1983 39.9803 23.1985 40.0415 23.1925C40.2758 23.1702 40.3582 23.0867 40.3768 22.8429C40.3951 21.272 40.3951 18.1961 40.3951 18.1961C40.3951 18.1961 43.4165 21.3191 44.8596 22.8799C45.0669 23.1042 45.2939 23.2064 45.601 23.2016C46.1953 23.1921 46.7906 23.1939 47.3857 23.1956H47.3858H47.3858H47.3859H47.386H47.386H47.3861C47.6225 23.1963 47.8589 23.1971 48.0952 23.1971C48.1655 23.2015 48.2361 23.1986 48.3059 23.1886C48.3467 23.1799 48.3851 23.1598 48.4262 23.1383L48.4262 23.1383C48.4453 23.1283 48.465 23.118 48.4858 23.1084C48.4335 22.9625 48.3422 22.8713 48.2541 22.7834L48.254 22.7834C48.2327 22.7622 48.2117 22.7411 48.1914 22.7196C46.1576 20.5595 41.9771 16.0091 41.9771 16.0091C41.9771 16.0091 45.8844 12.4955 47.8265 10.7319C47.8325 10.7264 47.8388 10.7209 47.8451 10.7153C47.9002 10.667 47.9617 10.6131 47.9111 10.4977C47.8872 10.495 47.8622 10.4915 47.8364 10.4878L47.8363 10.4878C47.7737 10.479 47.7066 10.4695 47.6392 10.4695C47.4066 10.4665 47.174 10.4669 46.9414 10.4673L46.7087 10.4675C46.5177 10.4675 46.3266 10.4686 46.1356 10.4696H46.1356C45.678 10.4721 45.2205 10.4747 44.7629 10.4627C44.4443 10.4542 44.1837 10.546 43.9649 10.7717ZM86.7976 19.2739C86.8907 19.2739 86.9838 19.2734 87.0769 19.2729H87.077C87.294 19.2716 87.5111 19.2704 87.7282 19.2759C87.9761 19.2824 88.0423 19.3284 88.0609 19.5612C88.0866 19.884 88.2541 20.1134 88.4839 20.3132C88.6843 20.4925 88.9173 20.6315 89.1703 20.7224C90.225 21.0892 91.2511 21.017 92.235 20.4882C92.4191 20.3855 92.5841 20.2518 92.7229 20.0931C92.9767 19.8061 92.9851 19.4794 92.7714 19.1594C92.5864 18.8825 92.3261 18.6906 92.0317 18.5445C91.7642 18.4156 91.4791 18.3272 91.1857 18.2823C90.9334 18.2396 90.6811 18.1979 90.4287 18.1562L90.4286 18.1561L90.4285 18.1561L90.4283 18.1561L90.4282 18.1561L90.4281 18.156C90.0136 18.0875 89.5992 18.019 89.1855 17.9462C88.2465 17.7811 87.4166 17.3838 86.7094 16.7421C86.1654 16.2483 85.7548 15.6622 85.5904 14.9361C85.3854 14.0308 85.5095 13.1705 86.01 12.3772C86.3002 11.9173 86.6826 11.545 87.1225 11.231C87.8985 10.6773 88.7679 10.3858 89.7134 10.2876C90.6525 10.19 91.5701 10.265 92.4679 10.5565C93.2857 10.8224 94.0124 11.2406 94.5919 11.889C95.1068 12.4653 95.4173 13.1307 95.4483 13.9106C95.4678 14.4008 95.3959 14.475 94.8998 14.4778C94.5615 14.4807 94.2232 14.4797 93.8849 14.4788H93.8847C93.7155 14.4783 93.5463 14.4778 93.3771 14.4778C93.3066 14.4778 93.2361 14.475 93.1659 14.4713C93.0387 14.4646 92.9532 14.4059 92.9279 14.2738L92.9262 14.266L92.9238 14.2562L92.921 14.2448C92.92 14.2406 92.9193 14.2366 92.9188 14.2326C92.8551 13.6189 92.4428 13.2907 91.9293 13.0723C91.3293 12.8153 90.6705 12.7275 90.0242 12.8183C89.5448 12.8832 89.0882 13.0268 88.6805 13.2946C88.5379 13.3851 88.4065 13.4924 88.2894 13.6141C87.9749 13.9527 87.9642 14.3195 88.249 14.6833C88.5192 15.0273 88.8765 15.251 89.2924 15.3681C89.56 15.4436 89.8365 15.4909 90.1114 15.5378L90.1192 15.5391C90.3487 15.5785 90.5787 15.6145 90.8088 15.6505L90.809 15.6505C91.1078 15.6973 91.4066 15.744 91.704 15.7982C92.7556 15.9901 93.6799 16.4326 94.4549 17.1852C95.829 18.5193 95.8191 20.8378 94.3054 22.1556C93.7208 22.6636 93.0646 23.0394 92.3188 23.2409C91.1533 23.5559 89.9782 23.5714 88.8082 23.2691C87.8912 23.0315 87.0771 22.5947 86.4254 21.8892C86.0176 21.4479 85.6922 20.9552 85.5701 20.3572C85.5246 20.1224 85.5031 19.8836 85.5058 19.6444C85.5058 19.3828 85.6068 19.2866 85.8665 19.2776C86.0824 19.2697 86.2983 19.2716 86.5143 19.2734C86.6085 19.2742 86.7028 19.275 86.7971 19.275L86.7976 19.2739ZM59.1942 10.8772C58.9465 10.9844 58.6999 11.0912 58.4515 11.1811C58.4515 11.1811 58.476 10.8402 58.4515 10.7025C58.4433 10.6459 58.4168 10.5935 58.3761 10.5533C58.3353 10.5131 58.2826 10.4873 58.2259 10.4799C58.1419 10.4676 58.057 10.4626 57.9721 10.4649C57.4504 10.4636 56.9287 10.4636 56.4071 10.4649C56.3221 10.4626 56.2372 10.4679 56.1533 10.481C56.0317 10.505 55.946 10.5845 55.9299 10.7067C55.9144 10.8473 55.9081 10.9887 55.911 11.13V15.2782V22.474L55.911 22.5483C55.9107 22.6647 55.9104 22.781 55.9217 22.8973C55.9418 23.085 56.0303 23.1659 56.2238 23.1877C56.294 23.1939 56.3645 23.1963 56.435 23.1947H57.9577L57.9683 23.1947C58.0071 23.1948 58.0461 23.1948 58.0846 23.1922C58.3683 23.1727 58.4478 23.0923 58.4636 22.7971C58.4686 22.7032 58.4679 22.6092 58.4672 22.5152L58.467 22.4767L58.4667 22.4162C58.4654 20.3985 58.466 18.381 58.4684 16.3635L58.4683 16.2761C58.4679 16.065 58.4675 15.8522 58.5017 15.6459C58.8277 13.6844 60.6274 12.4326 62.5906 12.9225C63.954 13.2625 64.7476 14.1963 65.0329 15.5584C65.0987 15.8728 65.1088 16.2032 65.1088 16.5263C65.114 18.0416 65.1135 19.5571 65.113 21.0726L65.1128 22.4097L65.1126 22.4733V22.4733C65.1123 22.6071 65.112 22.7418 65.1249 22.8747C65.1441 23.0833 65.2382 23.1665 65.4542 23.1874C65.5265 23.1944 65.5987 23.1942 65.6709 23.194L65.708 23.1939C65.8771 23.1945 66.0461 23.194 66.2152 23.1934H66.2155C66.4834 23.1925 66.7514 23.1916 67.0193 23.1956C67.5404 23.2035 67.6281 23.1374 67.6281 22.5931C67.6236 20.4201 67.623 18.2472 67.6262 16.0745C67.6278 14.8803 67.3038 13.7806 66.6127 12.8136C65.1909 10.8241 63.2302 10.0478 60.829 10.3444C60.2625 10.4145 59.7262 10.6468 59.1942 10.8772ZM51.0713 16.8046V11.3513L51.0711 11.2562V11.2562C51.0708 11.161 51.0704 11.0657 51.073 10.9709C51.0843 10.5397 51.1443 10.4779 51.5608 10.4669C51.6264 10.4652 51.6923 10.4658 51.7581 10.4663H51.7581H51.7581H51.7581H51.7582H51.7583H51.7583C51.7911 10.4666 51.8239 10.4669 51.8566 10.4669H52.9973C53.0958 10.4646 53.1943 10.4685 53.2923 10.4787C53.4584 10.5007 53.5509 10.5831 53.57 10.7479C53.5866 10.9161 53.5935 11.085 53.5906 11.2539C53.5917 14.1003 53.5917 16.9467 53.5906 19.7932V22.4142L53.5908 22.4826C53.5912 22.5867 53.5915 22.6909 53.5841 22.7946C53.5635 23.085 53.4787 23.1693 53.1998 23.1897C53.1716 23.1919 53.1434 23.1922 53.1152 23.1922H51.5521C51.4956 23.1932 51.4391 23.1906 51.3829 23.1846C51.194 23.1606 51.1009 23.0773 51.0834 22.8905C51.07 22.7528 51.0702 22.6128 51.0704 22.4744V22.4744L51.0704 22.4261L51.0713 16.8046ZM114.399 22.4489V16.8686L114.399 11.2872C114.399 11.2557 114.399 11.2241 114.399 11.1924V11.1923V11.1919C114.4 11.097 114.4 11.0017 114.397 10.9068C114.383 10.5569 114.311 10.483 113.976 10.4674C113.909 10.4646 113.843 10.4648 113.777 10.4651L113.722 10.4652H112.666C111.88 10.4658 111.878 10.466 111.878 11.2739V13.1762V22.3072C111.878 22.3411 111.878 22.3749 111.878 22.4088V22.4091C111.878 22.5444 111.877 22.6798 111.888 22.8152C111.908 23.0776 111.999 23.1659 112.251 23.1891C112.293 23.1933 112.335 23.1933 112.378 23.1933H113.941C113.997 23.1941 114.054 23.1908 114.11 23.1834C114.278 23.1583 114.367 23.0793 114.384 22.9131C114.397 22.7587 114.402 22.6038 114.399 22.4489ZM52.3038 6.58051C52.3932 6.58051 52.4828 6.57981 52.5723 6.57911H52.5723C52.778 6.5775 52.9837 6.57589 53.1889 6.58277C53.4591 6.5918 53.5555 6.67674 53.5584 6.93579C53.5674 7.55435 53.5674 8.1729 53.5584 8.79146C53.5547 9.03019 53.4574 9.12783 53.22 9.13009C52.6018 9.13912 51.9837 9.13912 51.3656 9.13009C51.1118 9.12642 51.0193 9.0285 51.0153 8.75647C51.0063 8.15202 51.0063 7.54748 51.0153 6.94284C51.0196 6.67674 51.1112 6.5901 51.3763 6.58136C51.5911 6.57429 51.8062 6.57596 52.0212 6.57764C52.1153 6.57837 52.2094 6.5791 52.3035 6.5791L52.3038 6.58051ZM111.822 7.58141C111.823 7.67122 111.824 7.76101 111.824 7.85071C111.824 7.91957 111.823 7.98826 111.823 8.05689C111.822 8.28297 111.821 8.50845 111.828 8.73791C111.836 9.03703 111.919 9.12846 112.202 9.13297C112.78 9.14163 113.357 9.14163 113.934 9.13297C114.218 9.12874 114.323 9.0328 114.329 8.7523C114.34 8.16046 114.34 7.5688 114.329 6.97733C114.324 6.68639 114.226 6.58876 113.946 6.58368C113.369 6.57427 112.791 6.57371 112.214 6.58198C111.923 6.58622 111.835 6.6768 111.826 6.96322C111.819 7.16867 111.821 7.37509 111.822 7.58141Z" fill="#DC734C"/>
<path fill-rule="evenodd" clip-rule="evenodd" d="M14.5597 1.73148C13 1.73148 11.4294 2.21185 10.0559 2.72616C7.44953 3.70215 5.49418 5.8042 3.99907 8.14164C2.87813 9.89412 1.78599 11.666 1.78599 13.815C1.78599 20.3408 7.82093 26.1933 14.5597 26.1933C16.988 26.1933 20.3027 25.3835 22.2084 24.2039C23.2735 23.5446 23.8426 22.5238 24.4479 21.438C24.6372 21.0985 24.8301 20.7526 25.0427 20.4094C26.31 18.3643 27.5664 16.1167 27.5664 13.6676C27.5664 9.5576 24.6117 6.09583 21.3154 3.98697C19.378 2.74743 17.0543 1.73148 14.5597 1.73148ZM0 13.815C0 10.7161 1.36786 8.21678 3.1449 5.8944C5.79278 2.43394 8.49606 0 13.3173 0C14.8962 0 17.1781 0.0162171 18.9082 0.51576C20.5665 0.994557 21.7777 1.88191 22.9125 2.71324C23.0541 2.81696 23.1945 2.91981 23.3344 3.02088C26.8734 5.57744 29.663 9.09362 29.663 13.6676C29.663 18.3856 27.2619 22.8391 23.3732 25.4196C20.9017 27.0597 17.6905 27.8142 14.5597 27.8142C6.50287 27.8142 0 21.5315 0 13.815ZM14.6618 5.33066C13.66 5.33066 11.7792 5.92778 10.897 6.25927C9.22294 6.88832 8.36331 8.3352 7.56643 9.80379C6.76956 11.2724 6.45737 12.5173 6.45737 13.9024C6.45737 18.1085 9.95644 20.3243 12.2126 21.4149C13.9489 22.2542 16.6697 22.1752 17.8938 21.4149C18.076 21.3018 18.2998 21.1723 18.5458 21.0302C19.5119 20.4717 20.8183 19.7165 21.2754 18.9764C22.0893 17.6582 23.0159 15.3859 23.0159 13.8074C23.0159 11.1584 21.6808 8.50463 19.5636 7.1454C18.3193 6.34648 16.2641 5.33066 14.6618 5.33066ZM4.77305 13.8074C4.77305 11.8101 5.52974 9.52837 6.67112 8.03153C8.37183 5.80116 10.7728 3.70312 13.8694 3.70312C14.8836 3.70312 17.3064 4.2332 18.4176 4.55517C19.2486 4.79591 20.1048 5.56785 20.8219 6.21427L20.8219 6.21429C21.1387 6.49987 21.4283 6.76095 21.6766 6.94091C23.9497 8.58868 24.7923 11.3545 24.7923 14.3026C24.7923 17.3435 22.9924 20.9894 20.4948 22.6527C18.9074 23.7098 16.6727 23.9819 14.6618 23.9819C12.9294 23.9819 10.6994 23.4103 9.21381 22.4482C6.88599 19.9602 4.77305 17.1159 4.77305 13.8074ZM11.3268 11.6378C11.953 10.5972 12.3167 9.9928 14.0974 9.9928C15.0551 9.9928 16.3537 10.25 17.0975 10.7248C18.3629 11.5325 18.9342 12.1843 18.9342 13.7586C18.9342 14.6966 18.9327 15.5011 18.4462 16.2844C18.3645 16.4158 18.2905 16.5483 18.2178 16.6784C17.9854 17.0943 17.767 17.4853 17.3581 17.7378C16.6264 18.1896 15.2371 18.3416 14.0974 18.0205C13.8982 17.9644 13.7045 17.9138 13.5171 17.8648C12.1206 17.4997 11.0701 17.225 10.6382 15.444C10.3475 14.2454 10.5659 12.8459 10.9963 12.1747C11.118 11.9848 11.2258 11.8056 11.3268 11.6378ZM10.0394 10.7248C9.35718 11.6143 8.83204 12.5716 8.83204 13.7586C8.83204 16.7142 11.2392 19.9942 14.5872 19.5838C14.9078 19.5445 15.2188 19.5151 15.5189 19.4866C16.6045 19.3837 17.548 19.2943 18.2913 18.8022C19.7842 17.8138 20.4648 15.3404 20.4648 13.5333C20.4648 11.7813 19.65 10.3437 18.2913 9.36451C17.9442 9.11429 17.3319 8.96913 16.7492 8.83098C16.5192 8.77644 16.2938 8.723 16.0911 8.66462C13.1776 7.82535 11.7087 8.54816 10.0394 10.7248Z" fill="#DC734C"/>
</svg>
