<svg width="100" height="102" viewBox="0 0 100 102" fill="none" xmlns="http://www.w3.org/2000/svg">
<rect width="100" height="101.942" rx="12" fill="white"/>
<path d="M12.9451 41.4238H15.5341V40.1293C15.5341 39.786 15.3977 39.4567 15.1549 39.214C14.9122 38.9712 14.5829 38.8348 14.2396 38.8348C13.8962 38.8348 13.567 38.9712 13.3242 39.214C13.0815 39.4567 12.9451 39.786 12.9451 40.1293" fill="#444444"/>
<path d="M15.5344 41.4238H12.9454V42.7183C12.9454 43.0616 13.0818 43.3909 13.3246 43.6337C13.5673 43.8764 13.8966 44.0128 14.2399 44.0128C14.5832 44.0128 14.9125 43.8764 15.1553 43.6337C15.398 43.3909 15.5344 43.0616 15.5344 42.7183" fill="#444444"/>
<path d="M14.2396 54.3702C14.9545 54.3702 15.5341 53.7907 15.5341 53.0757C15.5341 52.3608 14.9545 51.7812 14.2396 51.7812C13.5246 51.7812 12.9451 52.3608 12.9451 53.0757C12.9451 53.7907 13.5246 54.3702 14.2396 54.3702Z" fill="#444444"/>
<path d="M12.9451 62.1359H15.5341V59.5469C14.8474 59.5469 14.1889 59.8196 13.7034 60.3052C13.2178 60.7907 12.9451 61.4492 12.9451 62.1359Z" fill="#444444"/>
<path d="M15.5341 64.7249V62.1359H12.9451C12.9451 62.8225 13.2178 63.481 13.7034 63.9666C14.1889 64.4521 14.8474 64.7249 15.5341 64.7249Z" fill="#444444"/>
<path d="M18.1233 46.6016V44.0126H16.8288C16.4855 44.0126 16.1562 44.1489 15.9134 44.3917C15.6707 44.6345 15.5343 44.9637 15.5343 45.3071C15.5343 45.6504 15.6707 45.9796 15.9134 46.2224C16.1562 46.4652 16.4855 46.6016 16.8288 46.6016" fill="#444444"/>
<path d="M18.123 56.9579V54.3689H16.8285C16.4852 54.3689 16.156 54.5053 15.9132 54.748C15.6704 54.9908 15.5341 55.3201 15.5341 55.6634C15.5341 56.0067 15.6704 56.336 15.9132 56.5787C16.156 56.8215 16.4852 56.9579 16.8285 56.9579" fill="#444444"/>
<path d="M15.5341 59.5469V62.1359H18.1231C18.1231 61.4492 17.8503 60.7907 17.3648 60.3052C16.8792 59.8196 16.2207 59.5469 15.5341 59.5469Z" fill="#444444"/>
<path d="M18.123 62.1359H15.5341V64.7249C16.2207 64.7249 16.8792 64.4521 17.3647 63.9666C17.8503 63.481 18.123 62.8225 18.123 62.1359Z" fill="#444444"/>
<path d="M18.1233 38.8351H20.7123V36.2461C20.0256 36.2461 19.3671 36.5189 18.8816 37.0044C18.3961 37.4899 18.1233 38.1484 18.1233 38.8351Z" fill="#444444"/>
<path d="M20.7123 38.8351H18.1233V41.4241H20.7123V38.8351Z" fill="#444444"/>
<path d="M20.7123 41.4238H18.1233V44.0128H20.7123V41.4238Z" fill="#444444"/>
<path d="M20.7123 44.0137H18.1233V46.6027H20.7123V44.0137Z" fill="#444444"/>
<path d="M20.7123 46.6016H18.1233V49.1906H20.7123V46.6016Z" fill="#444444"/>
<path d="M20.7122 49.1924H18.1232V50.4869C18.1232 50.8302 18.2595 51.1595 18.5023 51.4022C18.7451 51.645 19.0743 51.7814 19.4177 51.7814C19.761 51.7814 20.0902 51.645 20.333 51.4022C20.5758 51.1595 20.7122 50.8302 20.7122 50.4869" fill="#444444"/>
<path d="M20.7123 54.3691H18.1233V56.9581H20.7123V54.3691Z" fill="#444444"/>
<path d="M20.712 59.5469V56.9579H18.123C18.123 57.6445 18.3958 58.303 18.8813 58.7886C19.3669 59.2741 20.0254 59.5469 20.712 59.5469Z" fill="#444444"/>
<path d="M20.712 36.2472H23.301V34.9527C23.301 34.6094 23.1646 34.2801 22.9219 34.0373C22.6791 33.7946 22.3499 33.6582 22.0065 33.6582C21.6632 33.6582 21.334 33.7946 21.0912 34.0373C20.8484 34.2801 20.712 34.6094 20.712 34.9527" fill="#444444"/>
<path d="M23.301 36.2472H20.712V38.8362H23.301V36.2472Z" fill="#444444"/>
<path d="M23.301 38.8351H20.712V41.4241C21.3987 41.4241 22.0572 41.1513 22.5427 40.6658C23.0283 40.1802 23.301 39.5217 23.301 38.8351Z" fill="#444444"/>
<path d="M20.7122 54.3691V56.9581H23.3012C23.3012 56.2715 23.0284 55.613 22.5429 55.1274C22.0573 54.6419 21.3988 54.3691 20.7122 54.3691Z" fill="#444444"/>
<path d="M23.301 56.9579H20.712V59.5469H23.301V56.9579Z" fill="#444444"/>
<path d="M23.301 59.5469H20.712V62.1359H23.301V59.5469Z" fill="#444444"/>
<path d="M23.301 62.1359H20.712V63.4304C20.712 63.7737 20.8484 64.1029 21.0912 64.3457C21.3339 64.5885 21.6632 64.7249 22.0065 64.7249C22.3498 64.7249 22.6791 64.5885 22.9219 64.3457C23.1646 64.1029 23.301 63.7737 23.301 63.4304" fill="#444444"/>
<path d="M24.5955 44.0128C25.3105 44.0128 25.89 43.4333 25.89 42.7183C25.89 42.0034 25.3105 41.4238 24.5955 41.4238C23.8806 41.4238 23.301 42.0034 23.301 42.7183C23.301 43.4333 23.8806 44.0128 24.5955 44.0128Z" fill="#444444"/>
<path d="M24.5955 54.3702C25.3105 54.3702 25.89 53.7907 25.89 53.0757C25.89 52.3608 25.3105 51.7812 24.5955 51.7812C23.8806 51.7812 23.301 52.3608 23.301 53.0757C23.301 53.7907 23.8806 54.3702 24.5955 54.3702Z" fill="#444444"/>
<path d="M23.301 56.9579V59.5469H24.5955C24.9388 59.5469 25.2681 59.4105 25.5109 59.1677C25.7536 58.925 25.89 58.5957 25.89 58.2524C25.89 57.9091 25.7536 57.5798 25.5109 57.337C25.2681 57.0943 24.9388 56.9579 24.5955 56.9579" fill="#444444"/>
<path d="M25.8899 67.3145V64.7255H24.5954C24.2521 64.7255 23.9228 64.8618 23.68 65.1046C23.4373 65.3474 23.3009 65.6766 23.3009 66.02C23.3009 66.3633 23.4373 66.6925 23.68 66.9353C23.9228 67.1781 24.2521 67.3145 24.5954 67.3145" fill="#444444"/>
<path d="M28.4789 36.2472V33.6582H27.1844C26.8411 33.6582 26.5118 33.7946 26.269 34.0373C26.0263 34.2801 25.8899 34.6094 25.8899 34.9527C25.8899 35.296 26.0263 35.6253 26.269 35.868C26.5118 36.1108 26.8411 36.2472 27.1844 36.2472" fill="#444444"/>
<path d="M28.4788 41.4238V38.8348H27.1843C26.8409 38.8348 26.5117 38.9712 26.2689 39.214C26.0261 39.4567 25.8898 39.786 25.8898 40.1293C25.8898 40.4727 26.0261 40.8019 26.2689 41.0447C26.5117 41.2874 26.8409 41.4238 27.1843 41.4238" fill="#444444"/>
<path d="M28.4788 51.7812V49.1923H27.1843C26.8409 49.1923 26.5117 49.3286 26.2689 49.5714C26.0261 49.8142 25.8898 50.1434 25.8898 50.4868C25.8898 50.8301 26.0261 51.1593 26.2689 51.4021C26.5117 51.6449 26.8409 51.7812 27.1843 51.7812" fill="#444444"/>
<path d="M28.4789 56.9579V54.3689H27.1844C26.8411 54.3689 26.5118 54.5053 26.269 54.748C26.0263 54.9908 25.8899 55.3201 25.8899 55.6634C25.8899 56.0067 26.0263 56.336 26.269 56.5787C26.5118 56.8215 26.8411 56.9579 27.1844 56.9579" fill="#444444"/>
<path d="M28.4789 64.7249H25.8899V67.3139H28.4789V64.7249Z" fill="#444444"/>
<path d="M31.0679 33.6582H28.4789V36.2472H31.0679V33.6582Z" fill="#444444"/>
<path d="M31.0679 38.8351H28.4789V41.4241H31.0679V38.8351Z" fill="#444444"/>
<path d="M31.0681 46.6016V44.0126H29.7736C29.4303 44.0126 29.101 44.1489 28.8583 44.3917C28.6155 44.6345 28.4791 44.9637 28.4791 45.3071C28.4791 45.6504 28.6155 45.9796 28.8583 46.2224C29.101 46.4652 29.4303 46.6016 29.7736 46.6016" fill="#444444"/>
<path d="M28.4788 49.1924V51.7814H29.7733C30.1166 51.7814 30.4458 51.645 30.6886 51.4022C30.9314 51.1595 31.0678 50.8302 31.0678 50.4869C31.0678 50.1436 30.9314 49.8143 30.6886 49.5715C30.4458 49.3288 30.1166 49.1924 29.7733 49.1924" fill="#444444"/>
<path d="M31.0678 54.3691H28.4788V56.9581H31.0678V54.3691Z" fill="#444444"/>
<path d="M31.0681 62.1359V59.5469H29.7736C29.4303 59.5469 29.101 59.6833 28.8583 59.926C28.6155 60.1688 28.4791 60.498 28.4791 60.8414C28.4791 61.1847 28.6155 61.5139 28.8583 61.7567C29.101 61.9995 29.4303 62.1359 29.7736 62.1359" fill="#444444"/>
<path d="M31.0679 64.7249H28.4789V67.3139H31.0679V64.7249Z" fill="#444444"/>
<path d="M31.0679 33.6582V36.2472H33.6569C33.6569 35.5606 33.3841 34.902 32.8986 34.4165C32.413 33.931 31.7545 33.6582 31.0679 33.6582Z" fill="#444444"/>
<path d="M33.6569 36.2472H31.0679V38.8362H33.6569V36.2472Z" fill="#444444"/>
<path d="M33.6569 38.8351H31.0679V41.4241H33.6569V38.8351Z" fill="#444444"/>
<path d="M33.6571 41.4238H31.0681V44.0128H33.6571V41.4238Z" fill="#444444"/>
<path d="M33.6571 44.0137H31.0681V46.6027H33.6571V44.0137Z" fill="#444444"/>
<path d="M31.0676 54.3691H33.6566V51.7801C32.97 51.7801 32.3115 52.0529 31.8259 52.5384C31.3404 53.024 31.0676 53.6825 31.0676 54.3691Z" fill="#444444"/>
<path d="M33.657 54.3691H31.068V56.9581C31.7546 56.9581 32.4132 56.6854 32.8987 56.1998C33.3842 55.7143 33.657 55.0558 33.657 54.3691Z" fill="#444444"/>
<path d="M33.6571 59.5469H31.0681V62.1359H33.6571V59.5469Z" fill="#444444"/>
<path d="M33.6571 64.7249H31.0681V67.3139H33.6571V64.7249Z" fill="#444444"/>
<path d="M33.6571 18.1233H36.2461V16.8288C36.2461 16.4855 36.1097 16.1562 35.867 15.9134C35.6242 15.6707 35.2949 15.5343 34.9516 15.5343C34.6083 15.5343 34.279 15.6707 34.0363 15.9134C33.7935 16.1562 33.6571 16.4855 33.6571 16.8288" fill="#444444"/>
<path d="M36.2458 20.7129V18.1239H33.6569C33.6569 18.8105 33.9296 19.4691 34.4152 19.9546C34.9007 20.4401 35.5592 20.7129 36.2458 20.7129Z" fill="#444444"/>
<path d="M34.9515 31.0682C35.6664 31.0682 36.246 30.4887 36.246 29.7737C36.246 29.0588 35.6664 28.4792 34.9515 28.4792C34.2365 28.4792 33.657 29.0588 33.657 29.7737C33.657 30.4887 34.2365 31.0682 34.9515 31.0682Z" fill="#444444"/>
<path d="M33.6571 38.8351V41.4241H36.2461C36.2461 40.7374 35.9733 40.0789 35.4878 39.5934C35.0023 39.1079 34.3437 38.8351 33.6571 38.8351Z" fill="#444444"/>
<path d="M36.246 41.4238H33.657V44.0128H36.246V41.4238Z" fill="#444444"/>
<path d="M36.246 44.0137H33.657V46.6027H36.246V44.0137Z" fill="#444444"/>
<path d="M33.657 51.7812V54.3702H34.9515C35.2948 54.3702 35.6241 54.2339 35.8668 53.9911C36.1096 53.7483 36.246 53.4191 36.246 53.0757C36.246 52.7324 36.1096 52.4032 35.8668 52.1604C35.6241 51.9176 35.2948 51.7813 34.9515 51.7812" fill="#444444"/>
<path d="M33.6571 59.5469H36.2461V58.2524C36.2461 57.9091 36.1097 57.5798 35.867 57.337C35.6242 57.0943 35.2949 56.9579 34.9516 56.9579C34.6083 56.9579 34.279 57.0943 34.0363 57.337C33.7935 57.5798 33.6571 57.9091 33.6571 58.2524" fill="#444444"/>
<path d="M36.2461 59.5469H33.6571V62.1359H36.2461V59.5469Z" fill="#444444"/>
<path d="M36.2461 62.1359H33.6571V64.7249H36.2461V62.1359Z" fill="#444444"/>
<path d="M36.2461 64.7249H33.6571V67.3139C34.3437 67.3139 35.0023 67.0411 35.4878 66.5556C35.9733 66.07 36.2461 65.4115 36.2461 64.7249Z" fill="#444444"/>
<path d="M33.657 72.4922H36.246V69.9032C35.5593 69.9032 34.9008 70.176 34.4153 70.6615C33.9297 71.147 33.657 71.8055 33.657 72.4922Z" fill="#444444"/>
<path d="M36.2463 72.4922H33.6573V73.7867C33.6573 74.13 33.7937 74.4593 34.0365 74.702C34.2793 74.9448 34.6085 75.0812 34.9518 75.0812C35.2952 75.0812 35.6244 74.9448 35.8672 74.702C36.11 74.4593 36.2463 74.13 36.2463 73.7867" fill="#444444"/>
<path d="M36.2461 80.2598V77.6708H34.9516C34.6083 77.6708 34.279 77.8072 34.0362 78.0499C33.7935 78.2927 33.6571 78.6219 33.6571 78.9653C33.6571 79.3086 33.7935 79.6378 34.0362 79.8806C34.279 80.1234 34.6083 80.2598 34.9516 80.2598" fill="#444444"/>
<path d="M37.5406 15.5343C38.2555 15.5343 38.8351 14.9547 38.8351 14.2398C38.8351 13.5249 38.2555 12.9453 37.5406 12.9453C36.8257 12.9453 36.2461 13.5249 36.2461 14.2398C36.2461 14.9547 36.8257 15.5343 37.5406 15.5343Z" fill="#444444"/>
<path d="M36.2458 18.1233V20.7123H38.8348C38.8348 20.0256 38.5621 19.3671 38.0765 18.8816C37.591 18.3961 36.9325 18.1233 36.2458 18.1233Z" fill="#444444"/>
<path d="M38.8348 20.7129H36.2458V23.3019H38.8348V20.7129Z" fill="#444444"/>
<path d="M38.8348 23.3008H36.2458V25.8898H38.8348V23.3008Z" fill="#444444"/>
<path d="M38.8352 25.8906H36.2462V27.1851C36.2462 27.5284 36.3826 27.8577 36.6254 28.1005C36.8681 28.3432 37.1974 28.4796 37.5407 28.4796C37.884 28.4796 38.2133 28.3432 38.4561 28.1005C38.6988 27.8577 38.8352 27.5284 38.8352 27.1851" fill="#444444"/>
<path d="M36.2458 36.2472H38.8348V33.6582C38.1482 33.6582 37.4897 33.931 37.0041 34.4165C36.5186 34.902 36.2458 35.5605 36.2458 36.2472Z" fill="#444444"/>
<path d="M38.8351 38.8351V36.2461H36.2461C36.2461 36.9327 36.5189 37.5913 37.0044 38.0768C37.4899 38.5623 38.1484 38.8351 38.8351 38.8351Z" fill="#444444"/>
<path d="M38.8353 44.0137H36.2463V46.6027H38.8353V44.0137Z" fill="#444444"/>
<path d="M37.5408 56.9581C38.2558 56.9581 38.8353 56.3786 38.8353 55.6636C38.8353 54.9487 38.2558 54.3691 37.5408 54.3691C36.8259 54.3691 36.2463 54.9487 36.2463 55.6636C36.2463 56.3786 36.8259 56.9581 37.5408 56.9581Z" fill="#444444"/>
<path d="M38.8351 59.5469H36.2461V62.1359H38.8351V59.5469Z" fill="#444444"/>
<path d="M36.2463 69.9023H38.8353V67.3133C38.1487 67.3133 37.4902 67.5861 37.0046 68.0716C36.5191 68.5572 36.2463 69.2157 36.2463 69.9023Z" fill="#444444"/>
<path d="M38.8352 69.9023H36.2462V72.4913C36.9329 72.4913 37.5914 72.2186 38.0769 71.733C38.5624 71.2475 38.8352 70.589 38.8352 69.9023Z" fill="#444444"/>
<path d="M36.2461 77.6697V80.2587H38.8351C38.8351 79.572 38.5623 78.9135 38.0768 78.428C37.5913 77.9424 36.9327 77.6697 36.2461 77.6697Z" fill="#444444"/>
<path d="M38.8351 80.2598H36.2461V82.8488H38.8351V80.2598Z" fill="#444444"/>
<path d="M38.835 82.8488H36.246V85.4378H38.835V82.8488Z" fill="#444444"/>
<path d="M38.8352 88.0254V85.4364H36.2462C36.2462 86.123 36.519 86.7816 37.0045 87.2671C37.49 87.7526 38.1486 88.0254 38.8352 88.0254Z" fill="#444444"/>
<path d="M38.8352 23.3008V25.8898H40.1297C40.473 25.8898 40.8023 25.7534 41.0451 25.5106C41.2878 25.2679 41.4242 24.9386 41.4242 24.5953C41.4242 24.252 41.2878 23.9227 41.0451 23.6799C40.8023 23.4372 40.473 23.3008 40.1297 23.3008" fill="#444444"/>
<path d="M38.8351 31.0682H41.4241V29.7737C41.4241 29.4304 41.2877 29.1012 41.0449 28.8584C40.8022 28.6156 40.4729 28.4792 40.1296 28.4792C39.7863 28.4792 39.457 28.6156 39.2142 28.8584C38.9715 29.1012 38.8351 29.4304 38.8351 29.7737" fill="#444444"/>
<path d="M41.4241 31.0682H38.8351V33.6572H41.4241V31.0682Z" fill="#444444"/>
<path d="M41.4241 33.6582H38.8351V36.2472H41.4241V33.6582Z" fill="#444444"/>
<path d="M41.4241 36.2472H38.8351V38.8362C39.5217 38.8362 40.1802 38.5634 40.6658 38.0779C41.1513 37.5924 41.4241 36.9338 41.4241 36.2472Z" fill="#444444"/>
<path d="M38.8352 44.0137H41.4242V41.4247C40.7376 41.4247 40.079 41.6974 39.5935 42.183C39.108 42.6685 38.8352 43.327 38.8352 44.0137Z" fill="#444444"/>
<path d="M41.4242 44.0137H38.8352V46.6027H41.4242V44.0137Z" fill="#444444"/>
<path d="M38.8351 59.5469H41.4241V58.2524C41.4241 57.9091 41.2877 57.5798 41.0449 57.337C40.8022 57.0943 40.4729 56.9579 40.1296 56.9579C39.7863 56.9579 39.457 57.0943 39.2142 57.337C38.9715 57.5798 38.8351 57.9091 38.8351 58.2524" fill="#444444"/>
<path d="M41.4241 59.5469H38.8351V62.1359H41.4241V59.5469Z" fill="#444444"/>
<path d="M41.4241 62.1359H38.8351V64.7249H41.4241V62.1359Z" fill="#444444"/>
<path d="M41.4241 64.7249H38.8351V67.3139H41.4241V64.7249Z" fill="#444444"/>
<path d="M41.4241 67.3145H38.8351V69.9034C39.5217 69.9034 40.1802 69.6307 40.6658 69.1452C41.1513 68.6596 41.4241 68.0011 41.4241 67.3145Z" fill="#444444"/>
<path d="M38.8352 75.0811H41.4242V72.4921C40.7376 72.4921 40.079 72.7648 39.5935 73.2504C39.108 73.7359 38.8352 74.3944 38.8352 75.0811Z" fill="#444444"/>
<path d="M41.4241 77.6697V75.0807H38.8351C38.8351 75.7673 39.1078 76.4258 39.5934 76.9114C40.0789 77.3969 40.7374 77.6697 41.4241 77.6697Z" fill="#444444"/>
<path d="M38.8352 85.4366V88.0256H40.1297C40.473 88.0256 40.8023 87.8893 41.0451 87.6465C41.2878 87.4037 41.4242 87.0745 41.4242 86.7311C41.4242 86.3878 41.2878 86.0586 41.0451 85.8158C40.8023 85.573 40.473 85.4366 40.1297 85.4366" fill="#444444"/>
<path d="M41.4241 18.1233H44.0131V16.8288C44.0131 16.4855 43.8767 16.1562 43.6339 15.9134C43.3912 15.6707 43.0619 15.5343 42.7186 15.5343C42.3752 15.5343 42.046 15.6707 41.8032 15.9134C41.5605 16.1562 41.4241 16.4855 41.4241 16.8288" fill="#444444"/>
<path d="M44.0129 20.7129V18.1239H41.4239C41.4239 18.8105 41.6967 19.4691 42.1822 19.9546C42.6678 20.4401 43.3263 20.7129 44.0129 20.7129Z" fill="#444444"/>
<path d="M44.0131 33.6582H41.4241V36.2472H44.0131V33.6582Z" fill="#444444"/>
<path d="M41.4241 41.4238H44.0131V38.8348C43.3264 38.8348 42.6679 39.1076 42.1824 39.5931C41.6968 40.0787 41.4241 40.7372 41.4241 41.4238Z" fill="#444444"/>
<path d="M44.0131 41.4238H41.4241V44.0128H44.0131V41.4238Z" fill="#444444"/>
<path d="M44.0131 44.0137H41.4241V46.6027H44.0131V44.0137Z" fill="#444444"/>
<path d="M44.0129 49.1924V46.6034H41.4239C41.4239 47.29 41.6967 47.9486 42.1822 48.4341C42.6678 48.9196 43.3263 49.1924 44.0129 49.1924Z" fill="#444444"/>
<path d="M42.7186 56.9581C43.4335 56.9581 44.0131 56.3786 44.0131 55.6636C44.0131 54.9487 43.4335 54.3691 42.7186 54.3691C42.0036 54.3691 41.4241 54.9487 41.4241 55.6636C41.4241 56.3786 42.0036 56.9581 42.7186 56.9581Z" fill="#444444"/>
<path d="M41.4241 59.5469V62.1359H44.0131C44.0131 61.4492 43.7403 60.7907 43.2548 60.3052C42.7692 59.8196 42.1107 59.5469 41.4241 59.5469Z" fill="#444444"/>
<path d="M44.0131 62.1359H41.4241V64.7249H44.0131V62.1359Z" fill="#444444"/>
<path d="M41.4241 72.4922H44.0131V69.9032C43.3264 69.9032 42.6679 70.176 42.1824 70.6615C41.6968 71.147 41.4241 71.8055 41.4241 72.4922Z" fill="#444444"/>
<path d="M44.0131 72.4922H41.4241V75.0812H44.0131V72.4922Z" fill="#444444"/>
<path d="M44.0129 75.0811H41.4239V77.6701C42.1106 77.6701 42.7691 77.3973 43.2546 76.9118C43.7402 76.4262 44.0129 75.7677 44.0129 75.0811Z" fill="#444444"/>
<path d="M46.6021 18.1233H44.0131V20.7123H46.6021V18.1233Z" fill="#444444"/>
<path d="M46.6023 20.7129H44.0133V22.0074C44.0133 22.3507 44.1497 22.68 44.3924 22.9227C44.6352 23.1655 44.9645 23.3019 45.3078 23.3019C45.6511 23.3019 45.9804 23.1655 46.2231 22.9227C46.4659 22.68 46.6023 22.3507 46.6023 22.0074" fill="#444444"/>
<path d="M44.0131 28.4792H46.6021V25.8903C45.9154 25.8903 45.2569 26.163 44.7714 26.6485C44.2858 27.1341 44.0131 27.7926 44.0131 28.4792Z" fill="#444444"/>
<path d="M46.6021 28.4792H44.0131V29.7737C44.0131 30.1171 44.1494 30.4463 44.3922 30.6891C44.635 30.9319 44.9642 31.0682 45.3076 31.0682C45.6509 31.0682 45.9801 30.9319 46.2229 30.6891C46.4657 30.4463 46.6021 30.1171 46.6021 29.7737" fill="#444444"/>
<path d="M44.0131 33.6582V36.2472H46.6021C46.6021 35.5606 46.3293 34.902 45.8438 34.4165C45.3582 33.931 44.6997 33.6582 44.0131 33.6582Z" fill="#444444"/>
<path d="M46.6021 36.2472H44.0131V38.8362H46.6021V36.2472Z" fill="#444444"/>
<path d="M46.6021 38.8351H44.0131V41.4241H46.6021V38.8351Z" fill="#444444"/>
<path d="M46.6018 41.4238H44.0128V44.0128C44.6995 44.0128 45.358 43.7401 45.8435 43.2545C46.329 42.769 46.6018 42.1105 46.6018 41.4238Z" fill="#444444"/>
<path d="M44.0129 46.6016V49.1906H46.6019C46.6019 48.5039 46.3292 47.8454 45.8436 47.3599C45.3581 46.8743 44.6996 46.6016 44.0129 46.6016Z" fill="#444444"/>
<path d="M46.6019 49.1924H44.0129V51.7814H46.6019V49.1924Z" fill="#444444"/>
<path d="M46.6018 51.7812H44.0128V53.0757C44.0128 53.4191 44.1492 53.7483 44.392 53.9911C44.6347 54.2339 44.964 54.3702 45.3073 54.3702C45.6506 54.3702 45.9799 54.2339 46.2227 53.9911C46.4654 53.7483 46.6018 53.4191 46.6018 53.0757" fill="#444444"/>
<path d="M46.6021 62.1359H44.0131V64.7249H46.6021V62.1359Z" fill="#444444"/>
<path d="M46.6021 64.7249H44.0131V67.3139H46.6021V64.7249Z" fill="#444444"/>
<path d="M46.6019 67.3145H44.0129V69.9034H46.6019V67.3145Z" fill="#444444"/>
<path d="M46.6019 69.9023H44.0129V72.4913H46.6019V69.9023Z" fill="#444444"/>
<path d="M45.3074 85.4378C46.0224 85.4378 46.6019 84.8582 46.6019 84.1433C46.6019 83.4283 46.0224 82.8488 45.3074 82.8488C44.5925 82.8488 44.0129 83.4283 44.0129 84.1433C44.0129 84.8582 44.5925 85.4378 45.3074 85.4378Z" fill="#444444"/>
<path d="M49.191 15.5343V12.9453H47.8965C47.5532 12.9453 47.224 13.0817 46.9812 13.3245C46.7384 13.5672 46.602 13.8965 46.602 14.2398C46.602 14.5831 46.7384 14.9124 46.9812 15.1552C47.224 15.3979 47.5532 15.5343 47.8965 15.5343" fill="#444444"/>
<path d="M46.6023 18.1233V20.7123H47.8968C48.2401 20.7123 48.5694 20.5759 48.8121 20.3331C49.0549 20.0904 49.1913 19.7611 49.1913 19.4178C49.1913 19.0745 49.0549 18.7452 48.8121 18.5024C48.5694 18.2597 48.2401 18.1233 47.8968 18.1233" fill="#444444"/>
<path d="M46.6018 25.8906V28.4796H47.8963C48.2396 28.4796 48.5689 28.3432 48.8117 28.1005C49.0544 27.8577 49.1908 27.5284 49.1908 27.1851C49.1908 26.8418 49.0544 26.5125 48.8117 26.2698C48.5689 26.027 48.2396 25.8906 47.8963 25.8906" fill="#444444"/>
<path d="M49.1913 36.2472H46.6023V38.8362H49.1913V36.2472Z" fill="#444444"/>
<path d="M49.1907 46.6016V44.0126H47.8962C47.5529 44.0126 47.2236 44.1489 46.9808 44.3917C46.7381 44.6345 46.6017 44.9637 46.6017 45.3071C46.6017 45.6504 46.7381 45.9796 46.9808 46.2224C47.2236 46.4652 47.5529 46.6016 47.8962 46.6016" fill="#444444"/>
<path d="M46.6023 49.1924V51.7814H47.8968C48.2401 51.7814 48.5694 51.645 48.8121 51.4022C49.0549 51.1595 49.1913 50.8302 49.1913 50.4869C49.1913 50.1436 49.0549 49.8143 48.8121 49.5715C48.5694 49.3288 48.2401 49.1924 47.8968 49.1924" fill="#444444"/>
<path d="M46.6021 56.9579H49.191V54.3689C48.5044 54.3689 47.8459 54.6417 47.3603 55.1272C46.8748 55.6127 46.6021 56.2712 46.6021 56.9579Z" fill="#444444"/>
<path d="M49.191 56.9579H46.6021V59.5469H49.191V56.9579Z" fill="#444444"/>
<path d="M49.191 59.5469H46.6021V62.1359H49.191V59.5469Z" fill="#444444"/>
<path d="M49.191 62.1359H46.6021V64.7249H49.191V62.1359Z" fill="#444444"/>
<path d="M49.191 64.7249H46.602V67.3139C47.2887 67.3139 47.9472 67.0411 48.4327 66.5556C48.9183 66.07 49.191 65.4115 49.191 64.7249Z" fill="#444444"/>
<path d="M46.6018 69.9023V72.4913H47.8963C48.2396 72.4913 48.5689 72.355 48.8117 72.1122C49.0544 71.8694 49.1908 71.5402 49.1908 71.1968C49.1908 70.8535 49.0544 70.5243 48.8117 70.2815C48.5689 70.0387 48.2396 69.9023 47.8963 69.9023" fill="#444444"/>
<path d="M49.191 80.2598V77.6708H47.8965C47.5532 77.6708 47.224 77.8072 46.9812 78.0499C46.7384 78.2927 46.602 78.6219 46.602 78.9653C46.602 79.3086 46.7384 79.6378 46.9812 79.8806C47.224 80.1234 47.5532 80.2598 47.8965 80.2598" fill="#444444"/>
<path d="M49.1912 88.0254V85.4364H47.8967C47.5533 85.4364 47.2241 85.5728 46.9813 85.8155C46.7385 86.0583 46.6022 86.3876 46.6022 86.7309C46.6022 87.0742 46.7385 87.4035 46.9813 87.6462C47.2241 87.889 47.5533 88.0254 47.8967 88.0254" fill="#444444"/>
<path d="M51.78 12.9453H49.191V15.5343H51.78V12.9453Z" fill="#444444"/>
<path d="M51.78 25.8906V23.3016H50.4855C50.1422 23.3016 49.8129 23.438 49.5702 23.6808C49.3274 23.9235 49.191 24.2528 49.191 24.5961C49.191 24.9394 49.3274 25.2687 49.5702 25.5115C49.8129 25.7542 50.1422 25.8906 50.4855 25.8906" fill="#444444"/>
<path d="M50.4855 31.0682C51.2005 31.0682 51.78 30.4887 51.78 29.7737C51.78 29.0588 51.2005 28.4792 50.4855 28.4792C49.7706 28.4792 49.191 29.0588 49.191 29.7737C49.191 30.4887 49.7706 31.0682 50.4855 31.0682Z" fill="#444444"/>
<path d="M49.191 36.2472V38.8362H50.4855C50.8289 38.8362 51.1581 38.6998 51.4009 38.457C51.6437 38.2143 51.78 37.885 51.78 37.5417C51.78 37.1984 51.6437 36.8691 51.4009 36.6263C51.1581 36.3836 50.8289 36.2472 50.4855 36.2472" fill="#444444"/>
<path d="M49.1907 44.0137V46.6027H50.4852C50.8285 46.6027 51.1578 46.4663 51.4005 46.2235C51.6433 45.9808 51.7797 45.6515 51.7797 45.3082C51.7797 44.9648 51.6433 44.6356 51.4005 44.3928C51.1578 44.1501 50.8285 44.0137 50.4852 44.0137" fill="#444444"/>
<path d="M49.1912 54.3691H51.7802V51.7801C51.0935 51.7801 50.435 52.0529 49.9495 52.5384C49.4639 53.024 49.1912 53.6825 49.1912 54.3691Z" fill="#444444"/>
<path d="M51.78 54.3691H49.191V56.9581C49.8777 56.9581 50.5362 56.6854 51.0217 56.1998C51.5073 55.7143 51.78 55.0558 51.78 54.3691Z" fill="#444444"/>
<path d="M49.191 62.1359V64.7249H50.4855C50.8289 64.7249 51.1581 64.5885 51.4009 64.3457C51.6437 64.1029 51.78 63.7737 51.78 63.4304C51.78 63.087 51.6437 62.7578 51.4009 62.515C51.1581 62.2722 50.8289 62.1359 50.4855 62.1359" fill="#444444"/>
<path d="M50.4857 69.9034C51.2006 69.9034 51.7802 69.3239 51.7802 68.609C51.7802 67.894 51.2006 67.3145 50.4857 67.3145C49.7707 67.3145 49.1912 67.894 49.1912 68.609C49.1912 69.3239 49.7707 69.9034 50.4857 69.9034Z" fill="#444444"/>
<path d="M51.78 77.6697H49.191V80.2587H51.78V77.6697Z" fill="#444444"/>
<path d="M51.78 80.2598H49.191V82.8488H51.78V80.2598Z" fill="#444444"/>
<path d="M51.78 82.8488H49.191V85.4378H51.78V82.8488Z" fill="#444444"/>
<path d="M51.7799 85.4366H49.1909V88.0256C49.8776 88.0256 50.5361 87.7529 51.0216 87.2673C51.5071 86.7818 51.7799 86.1233 51.7799 85.4366Z" fill="#444444"/>
<path d="M54.369 12.9453H51.78V15.5343H54.369V12.9453Z" fill="#444444"/>
<path d="M51.78 23.3008H54.369V22.0063C54.369 21.663 54.2326 21.3337 53.9899 21.0909C53.7471 20.8482 53.4178 20.7118 53.0745 20.7118C52.7312 20.7118 52.4019 20.8482 52.1592 21.0909C51.9164 21.3337 51.78 21.663 51.78 22.0063" fill="#444444"/>
<path d="M54.3694 23.3008H51.7804V25.8898C52.467 25.8898 53.1256 25.617 53.6111 25.1315C54.0966 24.6459 54.3694 23.9874 54.3694 23.3008Z" fill="#444444"/>
<path d="M51.78 33.6582H54.369V32.3637C54.369 32.0204 54.2326 31.6911 53.9899 31.4484C53.7471 31.2056 53.4178 31.0692 53.0745 31.0692C52.7312 31.0692 52.4019 31.2056 52.1592 31.4484C51.9164 31.6911 51.78 32.0204 51.78 32.3637" fill="#444444"/>
<path d="M54.3693 33.6582H51.7803V34.9527C51.7803 35.296 51.9166 35.6253 52.1594 35.8681C52.4022 36.1108 52.7314 36.2472 53.0748 36.2472C53.4181 36.2472 53.7473 36.1108 53.9901 35.8681C54.2329 35.6253 54.3693 35.296 54.3693 34.9527" fill="#444444"/>
<path d="M53.0745 41.4241C53.7895 41.4241 54.369 40.8445 54.369 40.1296C54.369 39.4146 53.7895 38.8351 53.0745 38.8351C52.3596 38.8351 51.78 39.4146 51.78 40.1296C51.78 40.8445 52.3596 41.4241 53.0745 41.4241Z" fill="#444444"/>
<path d="M54.3694 49.1924V46.6034H53.0749C52.7316 46.6034 52.4023 46.7398 52.1595 46.9825C51.9168 47.2253 51.7804 47.5546 51.7804 47.8979C51.7804 48.2412 51.9168 48.5705 52.1595 48.8132C52.4023 49.056 52.7316 49.1924 53.0749 49.1924" fill="#444444"/>
<path d="M51.78 51.7812V54.3702H53.0745C53.4178 54.3702 53.7471 54.2339 53.9899 53.9911C54.2326 53.7483 54.369 53.4191 54.369 53.0757C54.369 52.7324 54.2326 52.4032 53.9899 52.1604C53.7471 51.9176 53.4178 51.7813 53.0745 51.7812" fill="#444444"/>
<path d="M54.3689 59.5469V56.9579H53.0744C52.7311 56.9579 52.4018 57.0943 52.159 57.337C51.9163 57.5798 51.7799 57.9091 51.7799 58.2524C51.7799 58.5957 51.9163 58.925 52.159 59.1677C52.4018 59.4105 52.7311 59.5469 53.0744 59.5469" fill="#444444"/>
<path d="M53.0745 67.3139C53.7895 67.3139 54.369 66.7343 54.369 66.0194C54.369 65.3044 53.7895 64.7249 53.0745 64.7249C52.3596 64.7249 51.78 65.3044 51.78 66.0194C51.78 66.7343 52.3596 67.3139 53.0745 67.3139Z" fill="#444444"/>
<path d="M51.78 77.6697V80.2587H53.0745C53.4178 80.2587 53.7471 80.1223 53.9899 79.8795C54.2326 79.6368 54.369 79.3075 54.369 78.9642C54.369 78.6209 54.2326 78.2916 53.9899 78.0488C53.7471 77.8061 53.4178 77.6697 53.0745 77.6697" fill="#444444"/>
<path d="M51.7799 82.8488V85.4378H53.0744C53.4177 85.4378 53.747 85.3014 53.9898 85.0586C54.2325 84.8158 54.3689 84.4866 54.3689 84.1433C54.3689 83.7999 54.2325 83.4707 53.9898 83.2279C53.747 82.9851 53.4177 82.8488 53.0744 82.8488" fill="#444444"/>
<path d="M54.369 12.9453V15.5343H55.6635C56.0068 15.5343 56.3361 15.3979 56.5789 15.1552C56.8216 14.9124 56.958 14.5831 56.958 14.2398C56.958 13.8965 56.8216 13.5672 56.5789 13.3245C56.3361 13.0817 56.0068 12.9453 55.6635 12.9453" fill="#444444"/>
<path d="M56.9583 20.7129V18.1239H55.6638C55.3204 18.1239 54.9912 18.2603 54.7484 18.503C54.5056 18.7458 54.3693 19.0751 54.3693 19.4184C54.3693 19.7617 54.5056 20.091 54.7484 20.3337C54.9912 20.5765 55.3204 20.7129 55.6638 20.7129" fill="#444444"/>
<path d="M55.6635 31.0682C56.3784 31.0682 56.958 30.4887 56.958 29.7737C56.958 29.0588 56.3784 28.4792 55.6635 28.4792C54.9486 28.4792 54.369 29.0588 54.369 29.7737C54.369 30.4887 54.9486 31.0682 55.6635 31.0682Z" fill="#444444"/>
<path d="M55.6638 38.8362C56.3787 38.8362 56.9583 38.2566 56.9583 37.5417C56.9583 36.8268 56.3787 36.2472 55.6638 36.2472C54.9488 36.2472 54.3693 36.8268 54.3693 37.5417C54.3693 38.2566 54.9488 38.8362 55.6638 38.8362Z" fill="#444444"/>
<path d="M54.3689 46.6016V49.1906H56.9579C56.9579 48.5039 56.6851 47.8454 56.1996 47.3599C55.7141 46.8743 55.0555 46.6016 54.3689 46.6016Z" fill="#444444"/>
<path d="M56.9583 49.1924H54.3693V50.4869C54.3693 50.8302 54.5056 51.1595 54.7484 51.4022C54.9912 51.645 55.3204 51.7814 55.6638 51.7814C56.0071 51.7814 56.3363 51.645 56.5791 51.4022C56.8219 51.1595 56.9583 50.8302 56.9583 50.4869" fill="#444444"/>
<path d="M54.3689 56.9579V59.5469H55.6634C56.0067 59.5469 56.336 59.4105 56.5787 59.1677C56.8215 58.925 56.9579 58.5957 56.9579 58.2524C56.9579 57.9091 56.8215 57.5798 56.5787 57.337C56.336 57.0943 56.0067 56.9579 55.6634 56.9579" fill="#444444"/>
<path d="M54.3694 72.4922H56.9584V71.1977C56.9584 70.8544 56.822 70.5251 56.5792 70.2823C56.3365 70.0396 56.0072 69.9032 55.6639 69.9032C55.3206 69.9032 54.9913 70.0396 54.7485 70.2823C54.5058 70.5251 54.3694 70.8544 54.3694 71.1977" fill="#444444"/>
<path d="M56.9583 75.0811V72.4921H54.3693C54.3693 73.1787 54.642 73.8372 55.1276 74.3228C55.6131 74.8083 56.2716 75.0811 56.9583 75.0811Z" fill="#444444"/>
<path d="M56.9579 18.1233V20.7123H59.5469C59.5469 20.0256 59.2741 19.3671 58.7886 18.8816C58.3031 18.3961 57.6445 18.1233 56.9579 18.1233Z" fill="#444444"/>
<path d="M59.5472 20.7129H56.9583V23.3019H59.5472V20.7129Z" fill="#444444"/>
<path d="M59.5471 25.8906V23.3016H56.9581C56.9581 23.9883 57.2309 24.6468 57.7164 25.1323C58.202 25.6179 58.8605 25.8906 59.5471 25.8906Z" fill="#444444"/>
<path d="M56.9583 41.4238H59.5472V40.1293C59.5472 39.786 59.4109 39.4567 59.1681 39.214C58.9253 38.9712 58.5961 38.8348 58.2528 38.8348C57.9094 38.8348 57.5802 38.9712 57.3374 39.214C57.0946 39.4567 56.9583 39.786 56.9583 40.1293" fill="#444444"/>
<path d="M59.5471 44.0137V41.4247H56.9581C56.9581 42.1113 57.2309 42.7698 57.7164 43.2554C58.202 43.7409 58.8605 44.0137 59.5471 44.0137Z" fill="#444444"/>
<path d="M59.5471 67.3145V64.7255H58.2526C57.9093 64.7255 57.58 64.8618 57.3373 65.1046C57.0945 65.3474 56.9581 65.6766 56.9581 66.02C56.9581 66.3633 57.0945 66.6925 57.3373 66.9353C57.58 67.1781 57.9093 67.3145 58.2526 67.3145" fill="#444444"/>
<path d="M56.9583 72.4922V75.0812H58.2528C58.5961 75.0812 58.9253 74.9448 59.1681 74.702C59.4109 74.4593 59.5472 74.13 59.5472 73.7867C59.5472 73.4434 59.4109 73.1141 59.1681 72.8713C58.9253 72.6286 58.5961 72.4922 58.2528 72.4922" fill="#444444"/>
<path d="M59.5471 88.0254V85.4364H58.2526C57.9093 85.4364 57.58 85.5728 57.3373 85.8155C57.0945 86.0583 56.9581 86.3876 56.9581 86.7309C56.9581 87.0742 57.0945 87.4035 57.3373 87.6462C57.58 87.889 57.9093 88.0254 58.2526 88.0254" fill="#444444"/>
<path d="M59.547 15.5343H62.136V14.2398C62.136 13.8965 61.9996 13.5672 61.7568 13.3245C61.5141 13.0817 61.1848 12.9453 60.8415 12.9453C60.4982 12.9453 60.1689 13.0817 59.9261 13.3245C59.6834 13.5672 59.547 13.8965 59.547 14.2398" fill="#444444"/>
<path d="M62.136 15.5343H59.547V16.8288C59.547 17.1721 59.6834 17.5014 59.9261 17.7441C60.1689 17.9869 60.4982 18.1233 60.8415 18.1233C61.1848 18.1233 61.5141 17.9869 61.7568 17.7441C61.9996 17.5014 62.136 17.1721 62.136 16.8288" fill="#444444"/>
<path d="M59.5471 20.7129V23.3019H62.1361C62.1361 22.6152 61.8633 21.9567 61.3778 21.4712C60.8923 20.9857 60.2338 20.7129 59.5471 20.7129Z" fill="#444444"/>
<path d="M62.1361 23.3008H59.5471V25.8898H62.1361V23.3008Z" fill="#444444"/>
<path d="M62.1361 25.8906H59.5471V28.4796H62.1361V25.8906Z" fill="#444444"/>
<path d="M62.136 28.4792H59.547V29.7737C59.547 30.1171 59.6834 30.4463 59.9261 30.6891C60.1689 30.9319 60.4982 31.0682 60.8415 31.0682C61.1848 31.0682 61.5141 30.9319 61.7568 30.6891C61.9996 30.4463 62.136 30.1171 62.136 29.7737" fill="#444444"/>
<path d="M62.1361 41.4238H59.5471V44.0128H62.1361V41.4238Z" fill="#444444"/>
<path d="M59.5471 51.7812H62.1361V50.4868C62.1361 50.1434 61.9997 49.8142 61.757 49.5714C61.5142 49.3286 61.1849 49.1923 60.8416 49.1923C60.4983 49.1923 60.169 49.3286 59.9263 49.5714C59.6835 49.8142 59.5471 50.1434 59.5471 50.4868" fill="#444444"/>
<path d="M62.136 51.7812H59.547V53.0757C59.547 53.4191 59.6834 53.7483 59.9261 53.9911C60.1689 54.2339 60.4982 54.3702 60.8415 54.3702C61.1848 54.3702 61.5141 54.2339 61.7568 53.9911C61.9996 53.7483 62.136 53.4191 62.136 53.0757" fill="#444444"/>
<path d="M59.5469 62.1359H62.1359V60.8414C62.1359 60.498 61.9995 60.1688 61.7567 59.926C61.514 59.6833 61.1847 59.5469 60.8414 59.5469C60.4981 59.5469 60.1688 59.6833 59.926 59.926C59.6833 60.1688 59.5469 60.498 59.5469 60.8414" fill="#444444"/>
<path d="M62.1359 62.1359H59.5469V64.7249H62.1359V62.1359Z" fill="#444444"/>
<path d="M62.1359 64.7249H59.5469V67.3139H62.1359V64.7249Z" fill="#444444"/>
<path d="M60.8414 82.8488C61.5563 82.8488 62.1359 82.2692 62.1359 81.5543C62.1359 80.8393 61.5563 80.2598 60.8414 80.2598C60.1264 80.2598 59.5469 80.8393 59.5469 81.5543C59.5469 82.2692 60.1264 82.8488 60.8414 82.8488Z" fill="#444444"/>
<path d="M62.1359 85.4366H59.5469V88.0256H62.1359V85.4366Z" fill="#444444"/>
<path d="M64.7249 20.7129V18.1239H63.4304C63.087 18.1239 62.7578 18.2603 62.515 18.503C62.2722 18.7458 62.1359 19.0751 62.1359 19.4184C62.1359 19.7617 62.2722 20.091 62.515 20.3337C62.7578 20.5765 63.087 20.7129 63.4304 20.7129" fill="#444444"/>
<path d="M62.136 25.8906V28.4796H63.4305C63.7738 28.4796 64.1031 28.3432 64.3458 28.1005C64.5886 27.8577 64.725 27.5284 64.725 27.1851C64.725 26.8418 64.5886 26.5125 64.3458 26.2698C64.1031 26.027 63.7738 25.8906 63.4305 25.8906" fill="#444444"/>
<path d="M62.1361 33.6582H64.7251V32.3637C64.7251 32.0204 64.5887 31.6911 64.346 31.4484C64.1032 31.2056 63.7739 31.0692 63.4306 31.0692C63.0873 31.0692 62.758 31.2056 62.5153 31.4484C62.2725 31.6911 62.1361 32.0204 62.1361 32.3637" fill="#444444"/>
<path d="M64.7251 33.6582H62.1361V36.2472H64.7251V33.6582Z" fill="#444444"/>
<path d="M64.7251 36.2472H62.1361V38.8362H64.7251V36.2472Z" fill="#444444"/>
<path d="M64.7251 38.8351H62.1361V41.4241H64.7251V38.8351Z" fill="#444444"/>
<path d="M64.7249 41.4238H62.1359V44.0128C62.8225 44.0128 63.481 43.7401 63.9666 43.2545C64.4521 42.769 64.7249 42.1105 64.7249 41.4238Z" fill="#444444"/>
<path d="M64.7249 49.1924V46.6034H63.4304C63.087 46.6034 62.7578 46.7398 62.515 46.9825C62.2722 47.2253 62.1359 47.5546 62.1359 47.8979C62.1359 48.2412 62.2722 48.5705 62.515 48.8132C62.7578 49.056 63.087 49.1924 63.4304 49.1924" fill="#444444"/>
<path d="M64.7249 64.7249H62.1359V67.3139H64.7249V64.7249Z" fill="#444444"/>
<path d="M64.725 67.3145H62.136V69.9034H64.725V67.3145Z" fill="#444444"/>
<path d="M64.725 69.9023H62.136V72.4913H64.725V69.9023Z" fill="#444444"/>
<path d="M64.7249 75.0811V72.4921H62.1359C62.1359 73.1787 62.4086 73.8372 62.8942 74.3228C63.3797 74.8083 64.0382 75.0811 64.7249 75.0811Z" fill="#444444"/>
<path d="M64.7251 80.2598V77.6708H63.4306C63.0873 77.6708 62.758 77.8072 62.5152 78.0499C62.2725 78.2927 62.1361 78.6219 62.1361 78.9653C62.1361 79.3086 62.2725 79.6378 62.5152 79.8806C62.758 80.1234 63.0873 80.2598 63.4306 80.2598" fill="#444444"/>
<path d="M62.1361 85.4366V88.0256H63.4306C63.7739 88.0256 64.1032 87.8893 64.346 87.6465C64.5887 87.4037 64.7251 87.0745 64.7251 86.7311C64.7251 86.3878 64.5887 86.0586 64.346 85.8158C64.1032 85.573 63.7739 85.4366 63.4306 85.4366" fill="#444444"/>
<path d="M64.725 15.5343H67.314V14.2398C67.314 13.8965 67.1776 13.5672 66.9348 13.3245C66.6921 13.0817 66.3628 12.9453 66.0195 12.9453C65.6762 12.9453 65.3469 13.0817 65.1041 13.3245C64.8614 13.5672 64.725 13.8965 64.725 14.2398" fill="#444444"/>
<path d="M67.314 15.5343H64.725V18.1233H67.314V15.5343Z" fill="#444444"/>
<path d="M67.3139 18.1233H64.7249V20.7123H67.3139V18.1233Z" fill="#444444"/>
<path d="M67.3137 20.7129H64.7247V22.0074C64.7247 22.3507 64.8611 22.68 65.1039 22.9227C65.3466 23.1655 65.6759 23.3019 66.0192 23.3019C66.3625 23.3019 66.6918 23.1655 66.9346 22.9227C67.1773 22.68 67.3137 22.3507 67.3137 22.0074" fill="#444444"/>
<path d="M66.0195 31.0682C66.7344 31.0682 67.314 30.4887 67.314 29.7737C67.314 29.0588 66.7344 28.4792 66.0195 28.4792C65.3045 28.4792 64.725 29.0588 64.725 29.7737C64.725 30.4887 65.3045 31.0682 66.0195 31.0682Z" fill="#444444"/>
<path d="M67.3139 36.2472H64.7249V38.8362H67.3139V36.2472Z" fill="#444444"/>
<path d="M64.7249 46.6016H67.3139V45.3071C67.3139 44.9637 67.1775 44.6345 66.9347 44.3917C66.6919 44.1489 66.3627 44.0126 66.0194 44.0126C65.676 44.0126 65.3468 44.1489 65.104 44.3917C64.8612 44.6345 64.7249 44.9637 64.7249 45.3071" fill="#444444"/>
<path d="M67.3139 46.6016H64.7249V49.1906H67.3139V46.6016Z" fill="#444444"/>
<path d="M64.7249 54.3691H67.3139V51.7801C66.6272 51.7801 65.9687 52.0529 65.4832 52.5384C64.9976 53.024 64.7249 53.6825 64.7249 54.3691Z" fill="#444444"/>
<path d="M67.3141 56.9579V54.3689H64.7251C64.7251 55.0555 64.9979 55.7141 65.4834 56.1996C65.9689 56.6851 66.6274 56.9579 67.3141 56.9579Z" fill="#444444"/>
<path d="M64.7251 62.1359H67.3141V60.8414C67.3141 60.498 67.1777 60.1688 66.9349 59.926C66.6922 59.6833 66.3629 59.5469 66.0196 59.5469C65.6763 59.5469 65.347 59.6833 65.1042 59.926C64.8615 60.1688 64.7251 60.498 64.7251 60.8414" fill="#444444"/>
<path d="M67.3141 62.1359H64.7251V64.7249H67.3141V62.1359Z" fill="#444444"/>
<path d="M67.3141 64.7249H64.7251V67.3139H67.3141V64.7249Z" fill="#444444"/>
<path d="M67.3139 67.3145H64.7249V69.9034H67.3139V67.3145Z" fill="#444444"/>
<path d="M67.3139 69.9023H64.7249V72.4913H67.3139V69.9023Z" fill="#444444"/>
<path d="M67.3139 72.4922H64.7249V75.0812H67.3139V72.4922Z" fill="#444444"/>
<path d="M67.3139 75.0811H64.7249V77.6701H67.3139V75.0811Z" fill="#444444"/>
<path d="M67.3141 77.6697H64.7251V80.2587H67.3141V77.6697Z" fill="#444444"/>
<path d="M66.0195 85.4378C66.7344 85.4378 67.314 84.8582 67.314 84.1433C67.314 83.4283 66.7344 82.8488 66.0195 82.8488C65.3045 82.8488 64.725 83.4283 64.725 84.1433C64.725 84.8582 65.3045 85.4378 66.0195 85.4378Z" fill="#444444"/>
<path d="M67.3138 36.2472H69.9028V34.9527C69.9028 34.6094 69.7665 34.2801 69.5237 34.0373C69.2809 33.7946 68.9517 33.6582 68.6083 33.6582C68.265 33.6582 67.9358 33.7946 67.693 34.0373C67.4502 34.2801 67.3138 34.6094 67.3138 34.9527" fill="#444444"/>
<path d="M69.9028 36.2472H67.3138V38.8362H69.9028V36.2472Z" fill="#444444"/>
<path d="M69.9031 38.8351H67.3141V40.1296C67.3141 40.4729 67.4505 40.8022 67.6932 41.0449C67.936 41.2877 68.2653 41.4241 68.6086 41.4241C68.9519 41.4241 69.2812 41.2877 69.5239 41.0449C69.7667 40.8022 69.9031 40.4729 69.9031 40.1296" fill="#444444"/>
<path d="M67.3142 46.6016V49.1906H68.6087C68.952 49.1906 69.2813 49.0542 69.5241 48.8114C69.7668 48.5686 69.9032 48.2394 69.9032 47.8961C69.9032 47.5527 69.7668 47.2235 69.5241 46.9807C69.2813 46.7379 68.952 46.6016 68.6087 46.6016" fill="#444444"/>
<path d="M69.9027 51.7812H67.3137V54.3702H69.9027V51.7812Z" fill="#444444"/>
<path d="M69.9031 54.3691H67.3141V56.9581C68.0007 56.9581 68.6592 56.6854 69.1448 56.1998C69.6303 55.7143 69.9031 55.0558 69.9031 54.3691Z" fill="#444444"/>
<path d="M69.9031 64.7249H67.3141V67.3139H69.9031V64.7249Z" fill="#444444"/>
<path d="M69.9032 75.0811H67.3142V77.6701H69.9032V75.0811Z" fill="#444444"/>
<path d="M69.9031 77.6697H67.3141V80.2587H69.9031V77.6697Z" fill="#444444"/>
<path d="M69.9031 88.0254V85.4364H68.6086C68.2653 85.4364 67.936 85.5728 67.6932 85.8155C67.4505 86.0583 67.3141 86.3876 67.3141 86.7309C67.3141 87.0742 67.4505 87.4035 67.6932 87.6462C67.936 87.889 68.2653 88.0254 68.6086 88.0254" fill="#444444"/>
<path d="M72.4921 36.2472H69.9031V38.8362H72.4921V36.2472Z" fill="#444444"/>
<path d="M71.1976 44.0128C71.9125 44.0128 72.4921 43.4333 72.4921 42.7183C72.4921 42.0034 71.9125 41.4238 71.1976 41.4238C70.4826 41.4238 69.9031 42.0034 69.9031 42.7183C69.9031 43.4333 70.4826 44.0128 71.1976 44.0128Z" fill="#444444"/>
<path d="M72.4921 51.7812H69.9031V54.3702H72.4921V51.7812Z" fill="#444444"/>
<path d="M69.9031 59.5469H72.4921V58.2524C72.4921 57.9091 72.3557 57.5798 72.1129 57.337C71.8702 57.0943 71.5409 56.9579 71.1976 56.9579C70.8543 56.9579 70.525 57.0943 70.2822 57.337C70.0395 57.5798 69.9031 57.9091 69.9031 58.2524" fill="#444444"/>
<path d="M72.4921 62.1359V59.5469H69.9031C69.9031 60.2335 70.1758 60.892 70.6614 61.3776C71.1469 61.8631 71.8054 62.1359 72.4921 62.1359Z" fill="#444444"/>
<path d="M72.4921 64.7249H69.9031V67.3139H72.4921V64.7249Z" fill="#444444"/>
<path d="M71.1976 72.4913C71.9125 72.4913 72.4921 71.9118 72.4921 71.1968C72.4921 70.4819 71.9125 69.9023 71.1976 69.9023C70.4826 69.9023 69.9031 70.4819 69.9031 71.1968C69.9031 71.9118 70.4826 72.4913 71.1976 72.4913Z" fill="#444444"/>
<path d="M72.4921 75.0811H69.9031V77.6701H72.4921V75.0811Z" fill="#444444"/>
<path d="M72.4921 77.6697H69.9031V80.2587H72.4921V77.6697Z" fill="#444444"/>
<path d="M72.4921 80.2598H69.9031V81.5543C69.9031 81.8976 70.0395 82.2268 70.2822 82.4696C70.525 82.7124 70.8542 82.8488 71.1976 82.8488C71.5409 82.8488 71.8701 82.7124 72.1129 82.4696C72.3557 82.2268 72.4921 81.8976 72.4921 81.5543" fill="#444444"/>
<path d="M72.4921 85.4366H69.9031V88.0256H72.4921V85.4366Z" fill="#444444"/>
<path d="M75.0811 36.2472H72.4921V38.8362H75.0811V36.2472Z" fill="#444444"/>
<path d="M72.4919 46.6016H75.0809V45.3071C75.0809 44.9637 74.9446 44.6345 74.7018 44.3917C74.459 44.1489 74.1298 44.0126 73.7864 44.0126C73.4431 44.0126 73.1139 44.1489 72.8711 44.3917C72.6283 44.6345 72.4919 44.9637 72.4919 45.3071" fill="#444444"/>
<path d="M75.0809 46.6016H72.4919V49.1906H75.0809V46.6016Z" fill="#444444"/>
<path d="M75.0809 49.1924H72.4919V51.7814H75.0809V49.1924Z" fill="#444444"/>
<path d="M75.0809 51.7812H72.4919V54.3702H75.0809V51.7812Z" fill="#444444"/>
<path d="M75.0811 59.5469H72.4921V62.1359H75.0811V59.5469Z" fill="#444444"/>
<path d="M75.0811 62.1359H72.4921V64.7249H75.0811V62.1359Z" fill="#444444"/>
<path d="M75.0811 64.7249H72.4921V67.3139H75.0811V64.7249Z" fill="#444444"/>
<path d="M75.0809 75.0811H72.4919V77.6701H75.0809V75.0811Z" fill="#444444"/>
<path d="M75.0811 77.6697H72.4921V80.2587C73.1787 80.2587 73.8372 79.9859 74.3228 79.5004C74.8083 79.0148 75.0811 78.3563 75.0811 77.6697Z" fill="#444444"/>
<path d="M72.4919 85.4366H75.0809V84.1421C75.0809 83.7988 74.9446 83.4696 74.7018 83.2268C74.459 82.984 74.1298 82.8476 73.7864 82.8476C73.4431 82.8476 73.1139 82.984 72.8711 83.2268C72.6283 83.4696 72.4919 83.7988 72.4919 84.1421" fill="#444444"/>
<path d="M75.0808 85.4366H72.4918V88.0256C73.1785 88.0256 73.837 87.7529 74.3225 87.2673C74.808 86.7818 75.0808 86.1233 75.0808 85.4366Z" fill="#444444"/>
<path d="M75.0808 36.2472V38.8362H76.3753C76.7186 38.8362 77.0479 38.6998 77.2907 38.457C77.5334 38.2143 77.6698 37.885 77.6698 37.5417C77.6698 37.1984 77.5334 36.8691 77.2907 36.6263C77.0479 36.3836 76.7186 36.2472 76.3753 36.2472" fill="#444444"/>
<path d="M75.0813 46.6016V49.1906H76.3758C76.7191 49.1906 77.0484 49.0542 77.2911 48.8114C77.5339 48.5686 77.6703 48.2394 77.6703 47.8961C77.6703 47.5527 77.5339 47.2235 77.2911 46.9807C77.0484 46.7379 76.7191 46.6016 76.3758 46.6016" fill="#444444"/>
<path d="M75.0808 51.7812V54.3702H77.6698C77.6698 53.6836 77.397 53.0251 76.9115 52.5395C76.426 52.054 75.7675 51.7812 75.0808 51.7812Z" fill="#444444"/>
<path d="M77.6698 54.3691H75.0808V56.9581H77.6698V54.3691Z" fill="#444444"/>
<path d="M77.6701 56.9579H75.0811V59.5469H77.6701V56.9579Z" fill="#444444"/>
<path d="M77.6701 59.5469H75.0811V62.1359H77.6701V59.5469Z" fill="#444444"/>
<path d="M77.6701 62.1359H75.0811V64.7249H77.6701V62.1359Z" fill="#444444"/>
<path d="M77.6701 64.7249H75.0811V67.3139H77.6701V64.7249Z" fill="#444444"/>
<path d="M77.6698 67.3145H75.0808V69.9034H77.6698V67.3145Z" fill="#444444"/>
<path d="M77.6698 69.9023H75.0808V72.4913H77.6698V69.9023Z" fill="#444444"/>
<path d="M77.6698 72.4922H75.0808V75.0812H77.6698V72.4922Z" fill="#444444"/>
<path d="M77.6703 75.0811H75.0813V77.6701H77.6703V75.0811Z" fill="#444444"/>
<path d="M77.6702 41.4238H80.2592V38.8348C79.5725 38.8348 78.914 39.1076 78.4285 39.5931C77.9429 40.0787 77.6702 40.7372 77.6702 41.4238Z" fill="#444444"/>
<path d="M80.2592 41.4238H77.6702V44.0128H80.2592V41.4238Z" fill="#444444"/>
<path d="M80.259 44.0137H77.67V45.3082C77.67 45.6515 77.8064 45.9808 78.0492 46.2235C78.292 46.4663 78.6212 46.6027 78.9645 46.6027C79.3079 46.6027 79.6371 46.4663 79.8799 46.2235C80.1226 45.9808 80.259 45.6515 80.259 45.3082" fill="#444444"/>
<path d="M80.2592 54.3691H77.6702V56.9581H80.2592V54.3691Z" fill="#444444"/>
<path d="M80.259 56.9579H77.67V59.5469H80.259V56.9579Z" fill="#444444"/>
<path d="M80.259 59.5469H77.67V62.1359H80.259V59.5469Z" fill="#444444"/>
<path d="M80.259 62.1359H77.67V64.7249H80.259V62.1359Z" fill="#444444"/>
<path d="M80.259 64.7249H77.67V67.3139C78.3567 67.3139 79.0152 67.0411 79.5007 66.5556C79.9863 66.07 80.259 65.4115 80.259 64.7249Z" fill="#444444"/>
<path d="M77.6702 72.4922V75.0812H80.2592C80.2592 74.3945 79.9864 73.736 79.5009 73.2505C79.0153 72.765 78.3568 72.4922 77.6702 72.4922Z" fill="#444444"/>
<path d="M80.2592 75.0811H77.6702V77.6701H80.2592V75.0811Z" fill="#444444"/>
<path d="M77.67 82.8488H80.259V81.5543C80.259 81.2109 80.1227 80.8817 79.8799 80.6389C79.6371 80.3961 79.3079 80.2598 78.9645 80.2598C78.6212 80.2598 78.292 80.3961 78.0492 80.6389C77.8064 80.8817 77.67 81.2109 77.67 81.5543" fill="#444444"/>
<path d="M80.2589 85.4366V82.8476H77.6699C77.6699 83.5343 77.9427 84.1928 78.4282 84.6783C78.9137 85.1639 79.5723 85.4366 80.2589 85.4366Z" fill="#444444"/>
<path d="M82.8483 36.2472V33.6582H81.5538C81.2104 33.6582 80.8812 33.7946 80.6384 34.0373C80.3957 34.2801 80.2593 34.6094 80.2593 34.9527C80.2593 35.296 80.3957 35.6253 80.6384 35.868C80.8812 36.1108 81.2104 36.2472 81.5538 36.2472" fill="#444444"/>
<path d="M82.848 38.8351H80.259V41.4241H82.848V38.8351Z" fill="#444444"/>
<path d="M82.848 54.3691H80.259V56.9581H82.848V54.3691Z" fill="#444444"/>
<path d="M81.5535 69.9034C82.2685 69.9034 82.848 69.3239 82.848 68.609C82.848 67.894 82.2685 67.3145 81.5535 67.3145C80.8386 67.3145 80.259 67.894 80.259 68.609C80.259 69.3239 80.8386 69.9034 81.5535 69.9034Z" fill="#444444"/>
<path d="M80.259 75.0811V77.6701H81.5535C81.8969 77.6701 82.2261 77.5337 82.4689 77.2909C82.7116 77.0481 82.848 76.7189 82.848 76.3756C82.848 76.0322 82.7116 75.703 82.4689 75.4602C82.2261 75.2174 81.8969 75.0811 81.5535 75.0811" fill="#444444"/>
<path d="M80.2589 82.8488V85.4378H82.8479C82.8479 84.7511 82.5751 84.0926 82.0896 83.6071C81.6041 83.1215 80.9456 82.8488 80.2589 82.8488Z" fill="#444444"/>
<path d="M82.8481 85.4366H80.2591V86.7311C80.2591 87.0745 80.3955 87.4037 80.6383 87.6465C80.8811 87.8893 81.2103 88.0256 81.5536 88.0256C81.897 88.0256 82.2262 87.8893 82.469 87.6465C82.7118 87.4037 82.8481 87.0745 82.8481 86.7311" fill="#444444"/>
<path d="M82.8483 33.6582V36.2472H84.1428C84.4861 36.2472 84.8153 36.1108 85.0581 35.8681C85.3009 35.6253 85.4373 35.296 85.4373 34.9527C85.4373 34.6094 85.3009 34.2801 85.0581 34.0374C84.8153 33.7946 84.4861 33.6582 84.1428 33.6582" fill="#444444"/>
<path d="M82.8483 38.8351V41.4241H85.4373C85.4373 40.7374 85.1645 40.0789 84.679 39.5934C84.1934 39.1079 83.5349 38.8351 82.8483 38.8351Z" fill="#444444"/>
<path d="M85.4369 41.4238H82.8479V44.0128H85.4369V41.4238Z" fill="#444444"/>
<path d="M85.4368 44.0137H82.8478V45.3082C82.8478 45.6515 82.9842 45.9808 83.2269 46.2235C83.4697 46.4663 83.7989 46.6027 84.1423 46.6027C84.4856 46.6027 84.8149 46.4663 85.0576 46.2235C85.3004 45.9808 85.4368 45.6515 85.4368 45.3082" fill="#444444"/>
<path d="M82.8479 51.7812H85.4369V50.4868C85.4369 50.1434 85.3005 49.8142 85.0577 49.5714C84.815 49.3286 84.4857 49.1923 84.1424 49.1923C83.7991 49.1923 83.4698 49.3286 83.227 49.5714C82.9843 49.8142 82.8479 50.1434 82.8479 50.4868" fill="#444444"/>
<path d="M85.4369 51.7812H82.8479V54.3702H85.4369V51.7812Z" fill="#444444"/>
<path d="M85.4369 54.3691H82.8479V56.9581H85.4369V54.3691Z" fill="#444444"/>
<path d="M82.8479 64.7249H85.4369V63.4304C85.4369 63.087 85.3005 62.7578 85.0577 62.515C84.815 62.2722 84.4857 62.1359 84.1424 62.1359C83.7991 62.1359 83.4698 62.2722 83.227 62.515C82.9843 62.7578 82.8479 63.087 82.8479 63.4304" fill="#444444"/>
<path d="M85.4368 67.3145V64.7255H82.8478C82.8478 65.4121 83.1205 66.0706 83.6061 66.5562C84.0916 67.0417 84.7501 67.3145 85.4368 67.3145Z" fill="#444444"/>
<path d="M84.1424 72.4913C84.8573 72.4913 85.4369 71.9118 85.4369 71.1968C85.4369 70.4819 84.8573 69.9023 84.1424 69.9023C83.4275 69.9023 82.8479 70.4819 82.8479 71.1968C82.8479 71.9118 83.4275 72.4913 84.1424 72.4913Z" fill="#444444"/>
<path d="M85.4369 80.2598V77.6708H84.1424C83.7991 77.6708 83.4698 77.8072 83.227 78.0499C82.9843 78.2927 82.8479 78.6219 82.8479 78.9653C82.8479 79.3086 82.9843 79.6378 83.227 79.8806C83.4698 80.1234 83.7991 80.2598 84.1424 80.2598" fill="#444444"/>
<path d="M86.7313 49.1906C87.4462 49.1906 88.0258 48.611 88.0258 47.8961C88.0258 47.1811 87.4462 46.6016 86.7313 46.6016C86.0163 46.6016 85.4368 47.1811 85.4368 47.8961C85.4368 48.611 86.0163 49.1906 86.7313 49.1906Z" fill="#444444"/>
<path d="M85.4368 54.3691V56.9581H86.7313C87.0746 56.9581 87.4038 56.8218 87.6466 56.579C87.8894 56.3362 88.0258 56.007 88.0258 55.6636C88.0258 55.3203 87.8894 54.9911 87.6466 54.7483C87.4038 54.5055 87.0746 54.3691 86.7313 54.3691" fill="#444444"/>
<path d="M85.4369 64.7249V67.3139H86.7314C87.0747 67.3139 87.404 67.1775 87.6467 66.9347C87.8895 66.6919 88.0259 66.3627 88.0259 66.0194C88.0259 65.676 87.8895 65.3468 87.6467 65.104C87.404 64.8612 87.0747 64.7249 86.7314 64.7249" fill="#444444"/>
<path d="M85.4368 75.0811H88.0258V73.7866C88.0258 73.4432 87.8894 73.114 87.6466 72.8712C87.4038 72.6284 87.0746 72.4921 86.7313 72.4921C86.3879 72.4921 86.0587 72.6284 85.8159 72.8712C85.5732 73.114 85.4368 73.4432 85.4368 73.7866" fill="#444444"/>
<path d="M88.0258 75.0811H85.4368V77.6701H88.0258V75.0811Z" fill="#444444"/>
<path d="M88.0259 77.6697H85.4369V80.2587H88.0259V77.6697Z" fill="#444444"/>
<path d="M88.0259 80.2598H85.4369V81.5543C85.4369 81.8976 85.5733 82.2268 85.816 82.4696C86.0588 82.7124 86.3881 82.8488 86.7314 82.8488C87.0747 82.8488 87.404 82.7124 87.6467 82.4696C87.8895 82.2268 88.0259 81.8976 88.0259 81.5543" fill="#444444"/>
<path d="M86.7315 88.0256C87.4464 88.0256 88.026 87.4461 88.026 86.7311C88.026 86.0162 87.4464 85.4366 86.7315 85.4366C86.0166 85.4366 85.437 86.0162 85.437 86.7311C85.437 87.4461 86.0166 88.0256 86.7315 88.0256Z" fill="#444444"/>
<path d="M12.9451 19.4178V24.5958C12.9451 26.3124 13.627 27.9587 14.8408 29.1725C16.0546 30.3864 17.7009 31.0683 19.4176 31.0683H24.5956C26.3122 31.0683 27.9585 30.3864 29.1723 29.1725C30.3861 27.9587 31.068 26.3124 31.068 24.5958V19.4178C31.068 17.7012 30.3861 16.0549 29.1723 14.8411C27.9585 13.6272 26.3122 12.9453 24.5956 12.9453H19.4176C17.7009 12.9453 16.0546 13.6272 14.8408 14.8411C13.627 16.0549 12.9451 17.7012 12.9451 19.4178ZM19.4176 15.5343H24.5956C25.6255 15.5343 26.6133 15.9435 27.3416 16.6718C28.0699 17.4001 28.479 18.3878 28.479 19.4178V24.5958C28.479 25.6258 28.0699 26.6135 27.3416 27.3418C26.6133 28.0701 25.6255 28.4793 24.5956 28.4793H19.4176C18.3876 28.4793 17.3998 28.0701 16.6715 27.3418C15.9432 26.6135 15.5341 25.6258 15.5341 24.5958V19.4178C15.5341 18.3878 15.9432 17.4001 16.6715 16.6718C17.3998 15.9435 18.3876 15.5343 19.4176 15.5343Z" fill="black"/>
<path d="M18.123 20.7129H20.712V18.1239C20.0254 18.1239 19.3669 18.3967 18.8813 18.8822C18.3958 19.3677 18.123 20.0262 18.123 20.7129Z" fill="black"/>
<path d="M20.712 20.7129H18.123V23.3019H20.712V20.7129Z" fill="black"/>
<path d="M20.7119 25.8915V23.3025H18.1229C18.1229 23.9891 18.3957 24.6476 18.8812 25.1332C19.3667 25.6187 20.0253 25.8915 20.7119 25.8915Z" fill="black"/>
<path d="M23.301 18.1239H20.712V20.7129H23.301V18.1239Z" fill="black"/>
<path d="M23.301 20.7129H20.712V23.3019H23.301V20.7129Z" fill="black"/>
<path d="M23.301 23.3019H20.712V25.8909H23.301V23.3019Z" fill="black"/>
<path d="M23.301 18.1239V20.7129H25.89C25.89 20.0263 25.6173 19.3677 25.1317 18.8822C24.6462 18.3967 23.9877 18.1239 23.301 18.1239Z" fill="black"/>
<path d="M25.89 20.7129H23.301V23.3019H25.89V20.7129Z" fill="black"/>
<path d="M25.89 23.3019H23.301V25.8909C23.9877 25.8909 24.6462 25.6181 25.1317 25.1326C25.6172 24.647 25.89 23.9885 25.89 23.3019Z" fill="black"/>
<path d="M81.5535 12.9453H76.3755C74.6589 12.9453 73.0126 13.6272 71.7988 14.8411C70.5849 16.0549 69.903 17.7012 69.903 19.4178V24.5958C69.903 26.3124 70.5849 27.9587 71.7988 29.1725C73.0126 30.3864 74.6589 31.0683 76.3755 31.0683H81.5535C83.2701 31.0683 84.9164 30.3864 86.1303 29.1725C87.3441 27.9587 88.026 26.3124 88.026 24.5958V19.4178C88.026 17.7012 87.3441 16.0549 86.1303 14.8411C84.9164 13.6272 83.2701 12.9453 81.5535 12.9453ZM85.437 19.4178V24.5958C85.437 25.6258 85.0279 26.6135 84.2996 27.3418C83.5713 28.0701 82.5835 28.4793 81.5535 28.4793H76.3755C75.3455 28.4793 74.3578 28.0701 73.6295 27.3418C72.9012 26.6135 72.492 25.6258 72.492 24.5958V19.4178C72.492 18.3878 72.9012 17.4001 73.6295 16.6718C74.3578 15.9435 75.3455 15.5343 76.3755 15.5343H81.5535C82.5835 15.5343 83.5713 15.9435 84.2996 16.6718C85.0279 17.4001 85.437 18.3878 85.437 19.4178Z" fill="black"/>
<path d="M75.0811 20.7129H77.6701V18.1239C76.9834 18.1239 76.3249 18.3967 75.8394 18.8822C75.3538 19.3677 75.0811 20.0262 75.0811 20.7129Z" fill="black"/>
<path d="M77.6701 20.7129H75.0811V23.3019H77.6701V20.7129Z" fill="black"/>
<path d="M77.6699 25.8915V23.3025H75.0809C75.0809 23.9891 75.3537 24.6476 75.8392 25.1332C76.3248 25.6187 76.9833 25.8915 77.6699 25.8915Z" fill="black"/>
<path d="M80.259 18.1239H77.67V20.7129H80.259V18.1239Z" fill="black"/>
<path d="M80.259 20.7129H77.67V23.3019H80.259V20.7129Z" fill="black"/>
<path d="M80.259 23.3019H77.67V25.8909H80.259V23.3019Z" fill="black"/>
<path d="M80.259 18.1239V20.7129H82.848C82.848 20.0263 82.5753 19.3677 82.0897 18.8822C81.6042 18.3967 80.9457 18.1239 80.259 18.1239Z" fill="black"/>
<path d="M82.848 20.7129H80.259V23.3019H82.848V20.7129Z" fill="black"/>
<path d="M82.848 23.3019H80.259V25.8909C80.9457 25.8909 81.6042 25.6181 82.0897 25.1326C82.5753 24.647 82.848 23.9885 82.848 23.3019Z" fill="black"/>
<path d="M19.4177 88.0253H24.5957C26.3123 88.0253 27.9586 87.3433 29.1724 86.1295C30.3862 84.9157 31.0682 83.2694 31.0682 81.5528V76.3748C31.0682 74.6582 30.3862 73.0119 29.1724 71.798C27.9586 70.5842 26.3123 69.9023 24.5957 69.9023H19.4177C17.7011 69.9023 16.0548 70.5842 14.8409 71.798C13.6271 73.0119 12.9452 74.6582 12.9452 76.3748V81.5528C12.9452 83.2694 13.6271 84.9157 14.8409 86.1295C16.0548 87.3433 17.7011 88.0253 19.4177 88.0253ZM15.5342 81.5528V76.3748C15.5342 75.3448 15.9433 74.357 16.6716 73.6287C17.3999 72.9004 18.3877 72.4913 19.4177 72.4913H24.5957C25.6256 72.4913 26.6134 72.9004 27.3417 73.6287C28.07 74.357 28.4792 75.3448 28.4792 76.3748V81.5528C28.4792 82.5827 28.07 83.5705 27.3417 84.2988C26.6134 85.0271 25.6256 85.4363 24.5957 85.4363H19.4177C18.3877 85.4363 17.3999 85.0271 16.6716 84.2988C15.9433 83.5705 15.5342 82.5827 15.5342 81.5528Z" fill="black"/>
<path d="M18.123 77.6693H20.712V75.0803C20.0254 75.0803 19.3669 75.3531 18.8813 75.8386C18.3958 76.3241 18.123 76.9827 18.123 77.6693Z" fill="black"/>
<path d="M20.712 77.6693H18.123V80.2583H20.712V77.6693Z" fill="black"/>
<path d="M20.7119 82.8479V80.2589H18.1229C18.1229 80.9455 18.3957 81.6041 18.8812 82.0896C19.3667 82.5751 20.0253 82.8479 20.7119 82.8479Z" fill="black"/>
<path d="M23.301 75.0803H20.712V77.6693H23.301V75.0803Z" fill="black"/>
<path d="M23.301 77.6693H20.712V80.2583H23.301V77.6693Z" fill="black"/>
<path d="M23.301 80.2583H20.712V82.8473H23.301V80.2583Z" fill="black"/>
<path d="M23.301 75.0803V77.6693H25.89C25.89 76.9827 25.6173 76.3242 25.1317 75.8386C24.6462 75.3531 23.9877 75.0803 23.301 75.0803Z" fill="black"/>
<path d="M25.89 77.6693H23.301V80.2583H25.89V77.6693Z" fill="black"/>
<path d="M25.89 80.2583H23.301V82.8473C23.9877 82.8473 24.6462 82.5745 25.1317 82.089C25.6172 81.6035 25.89 80.9449 25.89 80.2583Z" fill="black"/>
</svg>
